<?xml version="1.0" encoding="UTF-8" standalone="no"?>
<!DOCTYPE svg PUBLIC "-//W3C//DTD SVG 1.1//EN"
 "http://www.w3.org/Graphics/SVG/1.1/DTD/svg11.dtd">
<!-- Generated by graphviz version 2.43.0 (0)
 -->
<!-- Title: %3 Pages: 1 -->
<svg width="1210pt" height="621pt"
 viewBox="0.00 0.00 1210.00 621.00" xmlns="http://www.w3.org/2000/svg" xmlns:xlink="http://www.w3.org/1999/xlink">
<g id="graph0" class="graph" transform="scale(1 1) rotate(0) translate(4 617)">
<title>%3</title>
<polygon fill="white" stroke="transparent" points="-4,4 -4,-617 1206,-617 1206,4 -4,4"/>
<!-- n0 -->
<g id="node1" class="node">
<title>n0</title>
<polygon fill="none" stroke="black" points="1028,-613 974,-613 974,-590 1028,-590 1028,-613"/>
<text text-anchor="middle" x="1001" y="-597.8" font-family="Times,serif" font-size="14.00">IDLE</text>
</g>
<!-- n1 -->
<g id="node2" class="node">
<title>n1</title>
<polygon fill="none" stroke="black" points="1067.5,-554 934.5,-554 934.5,-531 1067.5,-531 1067.5,-554"/>
<text text-anchor="middle" x="1001" y="-538.8" font-family="Times,serif" font-size="14.00">TX / SCTP / INIT</text>
</g>
<!-- n0&#45;&gt;n1 -->
<g id="edge1" class="edge">
<title>n0&#45;&gt;n1</title>
<path fill="none" stroke="black" d="M1001,-589.78C1001,-582.61 1001,-572.95 1001,-564.31"/>
<polygon fill="black" stroke="black" points="1004.5,-564.17 1001,-554.17 997.5,-564.17 1004.5,-564.17"/>
</g>
<!-- n2 -->
<g id="node3" class="node">
<title>n2</title>
<polygon fill="none" stroke="black" points="1087,-495 915,-495 915,-472 1087,-472 1087,-495"/>
<text text-anchor="middle" x="1001" y="-479.8" font-family="Times,serif" font-size="14.00">RX / SCTP / INIT_ACK</text>
</g>
<!-- n1&#45;&gt;n2 -->
<g id="edge2" class="edge">
<title>n1&#45;&gt;n2</title>
<path fill="none" stroke="black" d="M1001,-530.78C1001,-523.61 1001,-513.95 1001,-505.31"/>
<polygon fill="black" stroke="black" points="1004.5,-505.17 1001,-495.17 997.5,-505.17 1004.5,-505.17"/>
</g>
<!-- n3 -->
<g id="node4" class="node">
<title>n3</title>
<polygon fill="none" stroke="black" points="1107,-436 895,-436 895,-413 1107,-413 1107,-436"/>
<text text-anchor="middle" x="1001" y="-420.8" font-family="Times,serif" font-size="14.00">TX / SCTP / COOKIE_ECHO</text>
</g>
<!-- n2&#45;&gt;n3 -->
<g id="edge3" class="edge">
<title>n2&#45;&gt;n3</title>
<path fill="none" stroke="black" d="M1001,-471.78C1001,-464.61 1001,-454.95 1001,-446.31"/>
<polygon fill="black" stroke="black" points="1004.5,-446.17 1001,-436.17 997.5,-446.17 1004.5,-446.17"/>
</g>
<!-- n15 -->
<g id="node16" class="node">
<title>n15</title>
<polygon fill="none" stroke="black" points="877.5,-436 664.5,-436 664.5,-413 877.5,-413 877.5,-436"/>
<text text-anchor="middle" x="771" y="-420.8" font-family="Times,serif" font-size="14.00">RX / SCTP / COOKIE_ECHO</text>
</g>
<!-- n2&#45;&gt;n15 -->
<g id="edge24" class="edge">
<title>n2&#45;&gt;n15</title>
<path fill="none" stroke="black" d="M958.55,-471.98C920.41,-462.53 864.3,-448.62 823.39,-438.48"/>
<polygon fill="black" stroke="black" points="824.14,-435.06 813.6,-436.06 822.46,-441.86 824.14,-435.06"/>
</g>
<!-- n4 -->
<g id="node5" class="node">
<title>n4</title>
<polygon fill="none" stroke="black" points="943,-377 743,-377 743,-354 943,-354 943,-377"/>
<text text-anchor="middle" x="843" y="-361.8" font-family="Times,serif" font-size="14.00">RX / SCTP / COOKIE_ACK</text>
</g>
<!-- n3&#45;&gt;n4 -->
<g id="edge4" class="edge">
<title>n3&#45;&gt;n4</title>
<path fill="none" stroke="black" d="M971.65,-412.91C946.27,-403.75 909.38,-390.45 881.6,-380.43"/>
<polygon fill="black" stroke="black" points="882.79,-377.13 872.19,-377.03 880.41,-383.72 882.79,-377.13"/>
</g>
<!-- n5 -->
<g id="node6" class="node">
<title>n5</title>
<polygon fill="none" stroke="black" points="624,-318 484,-318 484,-295 624,-295 624,-318"/>
<text text-anchor="middle" x="554" y="-302.8" font-family="Times,serif" font-size="14.00">TX / SCTP / DATA</text>
</g>
<!-- n4&#45;&gt;n5 -->
<g id="edge5" class="edge">
<title>n4&#45;&gt;n5</title>
<path fill="none" stroke="black" d="M789.66,-353.98C741.03,-344.39 669.14,-330.21 617.55,-320.03"/>
<polygon fill="black" stroke="black" points="618.01,-316.56 607.52,-318.06 616.66,-323.43 618.01,-316.56"/>
</g>
<!-- n16 -->
<g id="node17" class="node">
<title>n16</title>
<polygon fill="none" stroke="black" points="1050,-200 780,-200 780,-177 1050,-177 1050,-200"/>
<text text-anchor="middle" x="915" y="-184.8" font-family="Times,serif" font-size="14.00">RX / E1AP / id&#45;gNB&#45;CU&#45;UP&#45;E1Setup</text>
</g>
<!-- n4&#45;&gt;n16 -->
<g id="edge26" class="edge">
<title>n4&#45;&gt;n16</title>
<path fill="none" stroke="black" d="M847.4,-353.82C859.17,-325.19 891.58,-246.43 906.84,-209.33"/>
<polygon fill="black" stroke="black" points="910.09,-210.62 910.66,-200.04 903.62,-207.96 910.09,-210.62"/>
</g>
<!-- n5&#45;&gt;n5 -->
<g id="edge12" class="edge">
<title>n5&#45;&gt;n5</title>
<path fill="none" stroke="black" d="M624.07,-316.42C634.75,-314.9 642,-311.6 642,-306.5 642,-303.23 639.02,-300.7 634.08,-298.91"/>
<polygon fill="black" stroke="black" points="634.6,-295.44 624.07,-296.58 633.02,-302.26 634.6,-295.44"/>
</g>
<!-- n6 -->
<g id="node7" class="node">
<title>n6</title>
<polygon fill="none" stroke="black" points="823.5,-259 680.5,-259 680.5,-236 823.5,-236 823.5,-259"/>
<text text-anchor="middle" x="752" y="-243.8" font-family="Times,serif" font-size="14.00">RX / SCTP / SACK</text>
</g>
<!-- n5&#45;&gt;n6 -->
<g id="edge6" class="edge">
<title>n5&#45;&gt;n6</title>
<path fill="none" stroke="black" d="M590.78,-294.91C623.15,-285.59 670.44,-271.98 705.44,-261.9"/>
<polygon fill="black" stroke="black" points="706.78,-265.16 715.42,-259.03 704.84,-258.43 706.78,-265.16"/>
</g>
<!-- n9 -->
<g id="node10" class="node">
<title>n9</title>
<polygon fill="none" stroke="black" points="475,-259 239,-259 239,-236 475,-236 475,-259"/>
<text text-anchor="middle" x="357" y="-243.8" font-family="Times,serif" font-size="14.00">RX / E2AP / id&#45;RICsubscription</text>
</g>
<!-- n5&#45;&gt;n9 -->
<g id="edge13" class="edge">
<title>n5&#45;&gt;n9</title>
<path fill="none" stroke="black" d="M517.41,-294.91C485.2,-285.59 438.15,-271.98 403.33,-261.9"/>
<polygon fill="black" stroke="black" points="403.98,-258.45 393.4,-259.03 402.03,-265.17 403.98,-258.45"/>
</g>
<!-- n7 -->
<g id="node8" class="node">
<title>n7</title>
<polygon fill="none" stroke="black" points="698.5,-82 557.5,-82 557.5,-59 698.5,-59 698.5,-82"/>
<text text-anchor="middle" x="628" y="-66.8" font-family="Times,serif" font-size="14.00">RX / SCTP / DATA</text>
</g>
<!-- n6&#45;&gt;n7 -->
<g id="edge7" class="edge">
<title>n6&#45;&gt;n7</title>
<path fill="none" stroke="black" d="M748.16,-235.93C738.17,-208.77 711.02,-137.37 695,-118 684.84,-105.71 670.64,-95.23 657.94,-87.35"/>
<polygon fill="black" stroke="black" points="659.41,-84.15 649.02,-82.08 655.85,-90.18 659.41,-84.15"/>
</g>
<!-- n14 -->
<g id="node15" class="node">
<title>n14</title>
<polygon fill="none" stroke="black" points="1202,-200 1068,-200 1068,-177 1202,-177 1202,-200"/>
<text text-anchor="middle" x="1135" y="-184.8" font-family="Times,serif" font-size="14.00">RX / SCTP / INIT</text>
</g>
<!-- n6&#45;&gt;n14 -->
<g id="edge22" class="edge">
<title>n6&#45;&gt;n14</title>
<path fill="none" stroke="black" d="M822.69,-235.98C889.44,-226.05 989.29,-211.19 1058.02,-200.96"/>
<polygon fill="black" stroke="black" points="1058.55,-204.42 1067.93,-199.48 1057.52,-197.49 1058.55,-204.42"/>
</g>
<!-- n6&#45;&gt;n16 -->
<g id="edge28" class="edge">
<title>n6&#45;&gt;n16</title>
<path fill="none" stroke="black" d="M776.89,-235.91C801.56,-226.71 839.67,-213.33 869.67,-203.29"/>
<polygon fill="black" stroke="black" points="871.12,-206.5 879.51,-200.03 868.91,-199.86 871.12,-206.5"/>
</g>
<!-- n17 -->
<g id="node18" class="node">
<title>n17</title>
<polygon fill="none" stroke="black" points="686,-200 492,-200 492,-177 686,-177 686,-200"/>
<text text-anchor="middle" x="589" y="-184.8" font-family="Times,serif" font-size="14.00">RX / SCTP / HEARTBEAT</text>
</g>
<!-- n6&#45;&gt;n17 -->
<g id="edge29" class="edge">
<title>n6&#45;&gt;n17</title>
<path fill="none" stroke="black" d="M721.72,-235.91C695.53,-226.75 657.48,-213.45 628.82,-203.43"/>
<polygon fill="black" stroke="black" points="629.71,-200.03 619.11,-200.03 627.4,-206.64 629.71,-200.03"/>
</g>
<!-- n8 -->
<g id="node9" class="node">
<title>n8</title>
<polygon fill="none" stroke="black" points="699,-23 557,-23 557,0 699,0 699,-23"/>
<text text-anchor="middle" x="628" y="-7.8" font-family="Times,serif" font-size="14.00">TX / SCTP / SACK</text>
</g>
<!-- n7&#45;&gt;n8 -->
<g id="edge8" class="edge">
<title>n7&#45;&gt;n8</title>
<path fill="none" stroke="black" d="M622.59,-58.78C621.33,-51.61 620.96,-41.95 621.47,-33.31"/>
<polygon fill="black" stroke="black" points="624.97,-33.5 622.6,-23.17 618.02,-32.73 624.97,-33.5"/>
</g>
<!-- n8&#45;&gt;n5 -->
<g id="edge11" class="edge">
<title>n8&#45;&gt;n5</title>
<path fill="none" stroke="black" d="M556.66,-15.02C470.13,-19.26 320.3,-30.36 195,-59 105.31,-79.5 0,-36.49 0,-128.5 0,-189.5 0,-189.5 0,-189.5 0,-285.08 319.89,-302.38 473.52,-305.18"/>
<polygon fill="black" stroke="black" points="473.78,-308.68 483.84,-305.35 473.89,-301.69 473.78,-308.68"/>
</g>
<!-- n8&#45;&gt;n6 -->
<g id="edge21" class="edge">
<title>n8&#45;&gt;n6</title>
<path fill="none" stroke="black" d="M657.11,-23.04C674.03,-30.59 694.42,-42.38 707,-59 745.45,-109.8 751.6,-188.69 752.23,-225.83"/>
<polygon fill="black" stroke="black" points="748.73,-225.96 752.27,-235.94 755.73,-225.93 748.73,-225.96"/>
</g>
<!-- n8&#45;&gt;n7 -->
<g id="edge9" class="edge">
<title>n8&#45;&gt;n7</title>
<path fill="none" stroke="black" d="M633.4,-23.17C634.66,-30.33 635.04,-39.99 634.53,-48.63"/>
<polygon fill="black" stroke="black" points="631.03,-48.46 633.41,-58.78 637.99,-49.22 631.03,-48.46"/>
</g>
<!-- n8&#45;&gt;n8 -->
<g id="edge10" class="edge">
<title>n8&#45;&gt;n8</title>
<path fill="none" stroke="black" d="M699.23,-21.37C709.83,-19.83 717,-16.54 717,-11.5 717,-8.27 714.06,-5.76 709.15,-3.97"/>
<polygon fill="black" stroke="black" points="709.76,-0.52 699.23,-1.63 708.16,-7.33 709.76,-0.52"/>
</g>
<!-- n9&#45;&gt;n9 -->
<g id="edge16" class="edge">
<title>n9&#45;&gt;n9</title>
<path fill="none" stroke="black" d="M475.44,-256.14C486.22,-254.35 493,-251.46 493,-247.5 493,-244.96 490.22,-242.86 485.38,-241.21"/>
<polygon fill="black" stroke="black" points="485.98,-237.76 475.44,-238.86 484.37,-244.57 485.98,-237.76"/>
</g>
<!-- n10 -->
<g id="node11" class="node">
<title>n10</title>
<polygon fill="none" stroke="black" points="474,-200 240,-200 240,-177 474,-177 474,-200"/>
<text text-anchor="middle" x="357" y="-184.8" font-family="Times,serif" font-size="14.00">TX / E2AP / id&#45;RICsubscription</text>
</g>
<!-- n9&#45;&gt;n10 -->
<g id="edge14" class="edge">
<title>n9&#45;&gt;n10</title>
<path fill="none" stroke="black" d="M351.59,-235.78C350.33,-228.61 349.96,-218.95 350.47,-210.31"/>
<polygon fill="black" stroke="black" points="353.97,-210.5 351.6,-200.17 347.02,-209.73 353.97,-210.5"/>
</g>
<!-- n11 -->
<g id="node12" class="node">
<title>n11</title>
<polygon fill="none" stroke="black" points="222,-200 28,-200 28,-177 222,-177 222,-200"/>
<text text-anchor="middle" x="125" y="-184.8" font-family="Times,serif" font-size="14.00">RX / SCTP / SHUTDOWN</text>
</g>
<!-- n9&#45;&gt;n11 -->
<g id="edge17" class="edge">
<title>n9&#45;&gt;n11</title>
<path fill="none" stroke="black" d="M314.18,-235.98C275.71,-226.53 219.11,-212.62 177.84,-202.48"/>
<polygon fill="black" stroke="black" points="178.51,-199.04 167.97,-200.06 176.84,-205.84 178.51,-199.04"/>
</g>
<!-- n10&#45;&gt;n9 -->
<g id="edge15" class="edge">
<title>n10&#45;&gt;n9</title>
<path fill="none" stroke="black" d="M362.4,-200.17C363.66,-207.33 364.04,-216.99 363.53,-225.63"/>
<polygon fill="black" stroke="black" points="360.03,-225.46 362.41,-235.78 366.99,-226.22 360.03,-225.46"/>
</g>
<!-- n12 -->
<g id="node13" class="node">
<title>n12</title>
<polygon fill="none" stroke="black" points="349,-141 117,-141 117,-118 349,-118 349,-141"/>
<text text-anchor="middle" x="233" y="-125.8" font-family="Times,serif" font-size="14.00">RX / SCTP / SHUTDOWN_ACK</text>
</g>
<!-- n11&#45;&gt;n12 -->
<g id="edge18" class="edge">
<title>n11&#45;&gt;n12</title>
<path fill="none" stroke="black" d="M145.06,-176.91C161.66,-168.15 185.44,-155.6 204.09,-145.76"/>
<polygon fill="black" stroke="black" points="205.84,-148.79 213.05,-141.03 202.57,-142.6 205.84,-148.79"/>
</g>
<!-- n13 -->
<g id="node14" class="node">
<title>n13</title>
<polygon fill="none" stroke="black" points="490,-82 204,-82 204,-59 490,-59 490,-82"/>
<text text-anchor="middle" x="347" y="-66.8" font-family="Times,serif" font-size="14.00">RX / SCTP / SHUTDOWN_COMPLETE</text>
</g>
<!-- n12&#45;&gt;n13 -->
<g id="edge19" class="edge">
<title>n12&#45;&gt;n13</title>
<path fill="none" stroke="black" d="M254.18,-117.91C271.77,-109.11 297.03,-96.49 316.76,-86.62"/>
<polygon fill="black" stroke="black" points="318.56,-89.63 325.94,-82.03 315.43,-83.37 318.56,-89.63"/>
</g>
<!-- n13&#45;&gt;n8 -->
<g id="edge20" class="edge">
<title>n13&#45;&gt;n8</title>
<path fill="none" stroke="black" d="M398.87,-58.98C446.05,-49.41 515.76,-35.27 565.89,-25.1"/>
<polygon fill="black" stroke="black" points="566.86,-28.47 575.96,-23.06 565.46,-21.61 566.86,-28.47"/>
</g>
<!-- n14&#45;&gt;n2 -->
<g id="edge23" class="edge">
<title>n14&#45;&gt;n2</title>
<path fill="none" stroke="black" d="M1135,-200.06C1135,-220.44 1135,-266.63 1135,-305.5 1135,-366.5 1135,-366.5 1135,-366.5 1135,-398.52 1137.28,-412.07 1116,-436 1102.35,-451.35 1082.91,-461.72 1063.88,-468.69"/>
<polygon fill="black" stroke="black" points="1062.65,-465.41 1054.31,-471.93 1064.9,-472.04 1062.65,-465.41"/>
</g>
<!-- n15&#45;&gt;n4 -->
<g id="edge25" class="edge">
<title>n15&#45;&gt;n4</title>
<path fill="none" stroke="black" d="M784.54,-412.78C794.9,-404.58 809.39,-393.11 821.35,-383.64"/>
<polygon fill="black" stroke="black" points="823.85,-386.12 829.52,-377.17 819.51,-380.64 823.85,-386.12"/>
</g>
<!-- n16&#45;&gt;n6 -->
<g id="edge27" class="edge">
<title>n16&#45;&gt;n6</title>
<path fill="none" stroke="black" d="M890.26,-200.03C865.65,-209.21 827.55,-222.59 797.51,-232.64"/>
<polygon fill="black" stroke="black" points="796.05,-229.44 787.66,-235.91 798.26,-236.08 796.05,-229.44"/>
</g>
<!-- n18 -->
<g id="node19" class="node">
<title>n18</title>
<polygon fill="none" stroke="black" points="686,-141 456,-141 456,-118 686,-118 686,-141"/>
<text text-anchor="middle" x="571" y="-125.8" font-family="Times,serif" font-size="14.00">TX / SCTP / HEARTBEAT_ACK</text>
</g>
<!-- n17&#45;&gt;n18 -->
<g id="edge30" class="edge">
<title>n17&#45;&gt;n18</title>
<path fill="none" stroke="black" d="M585.61,-176.78C583.3,-169.45 580.16,-159.52 577.39,-150.74"/>
<polygon fill="black" stroke="black" points="580.72,-149.66 574.37,-141.17 574.04,-151.76 580.72,-149.66"/>
</g>
</g>
</svg>
