<?xml version="1.0" encoding="UTF-8" standalone="no"?>
<!DOCTYPE svg PUBLIC "-//W3C//DTD SVG 1.1//EN"
 "http://www.w3.org/Graphics/SVG/1.1/DTD/svg11.dtd">
<!-- Generated by graphviz version 2.43.0 (0)
 -->
<!-- Title: %3 Pages: 1 -->
<svg width="1874pt" height="1329pt"
 viewBox="0.00 0.00 1874.00 1329.00" xmlns="http://www.w3.org/2000/svg" xmlns:xlink="http://www.w3.org/1999/xlink">
<g id="graph0" class="graph" transform="scale(1 1) rotate(0) translate(4 1325)">
<title>%3</title>
<polygon fill="white" stroke="transparent" points="-4,4 -4,-1325 1870,-1325 1870,4 -4,4"/>
<!-- n0 -->
<g id="node1" class="node">
<title>n0</title>
<polygon fill="none" stroke="black" points="287,-1321 233,-1321 233,-1298 287,-1298 287,-1321"/>
<text text-anchor="middle" x="260" y="-1305.8" font-family="Times,serif" font-size="14.00">IDLE</text>
</g>
<!-- n1 -->
<g id="node2" class="node">
<title>n1</title>
<polygon fill="none" stroke="black" points="326.5,-1262 193.5,-1262 193.5,-1239 326.5,-1239 326.5,-1262"/>
<text text-anchor="middle" x="260" y="-1246.8" font-family="Times,serif" font-size="14.00">TX / SCTP / INIT</text>
</g>
<!-- n0&#45;&gt;n1 -->
<g id="edge1" class="edge">
<title>n0&#45;&gt;n1</title>
<path fill="none" stroke="black" d="M260,-1297.78C260,-1290.61 260,-1280.95 260,-1272.31"/>
<polygon fill="black" stroke="black" points="263.5,-1272.17 260,-1262.17 256.5,-1272.17 263.5,-1272.17"/>
</g>
<!-- n1&#45;&gt;n1 -->
<g id="edge4" class="edge">
<title>n1&#45;&gt;n1</title>
<path fill="none" stroke="black" d="M326.6,-1260.51C337.22,-1259.05 344.5,-1255.71 344.5,-1250.5 344.5,-1247.16 341.51,-1244.59 336.57,-1242.79"/>
<polygon fill="black" stroke="black" points="337.13,-1239.33 326.6,-1240.49 335.55,-1246.15 337.13,-1239.33"/>
</g>
<!-- n2 -->
<g id="node3" class="node">
<title>n2</title>
<polygon fill="none" stroke="black" points="154,-1203 0,-1203 0,-1180 154,-1180 154,-1203"/>
<text text-anchor="middle" x="77" y="-1187.8" font-family="Times,serif" font-size="14.00">RX / SCTP / ABORT</text>
</g>
<!-- n1&#45;&gt;n2 -->
<g id="edge2" class="edge">
<title>n1&#45;&gt;n2</title>
<path fill="none" stroke="black" d="M220.62,-1238.91C189.32,-1229.67 145.94,-1216.21 115.01,-1206.16"/>
<polygon fill="black" stroke="black" points="116.02,-1202.81 105.43,-1203.03 113.85,-1209.47 116.02,-1202.81"/>
</g>
<!-- n3 -->
<g id="node4" class="node">
<title>n3</title>
<polygon fill="none" stroke="black" points="424,-1203 252,-1203 252,-1180 424,-1180 424,-1203"/>
<text text-anchor="middle" x="338" y="-1187.8" font-family="Times,serif" font-size="14.00">RX / SCTP / INIT_ACK</text>
</g>
<!-- n1&#45;&gt;n3 -->
<g id="edge5" class="edge">
<title>n1&#45;&gt;n3</title>
<path fill="none" stroke="black" d="M274.67,-1238.78C286.11,-1230.42 302.2,-1218.66 315.3,-1209.09"/>
<polygon fill="black" stroke="black" points="317.39,-1211.9 323.39,-1203.17 313.26,-1206.25 317.39,-1211.9"/>
</g>
<!-- n2&#45;&gt;n1 -->
<g id="edge3" class="edge">
<title>n2&#45;&gt;n1</title>
<path fill="none" stroke="black" d="M116.19,-1203.03C147.44,-1212.25 190.82,-1225.71 221.8,-1235.77"/>
<polygon fill="black" stroke="black" points="220.8,-1239.13 231.4,-1238.91 222.98,-1232.48 220.8,-1239.13"/>
</g>
<!-- n4 -->
<g id="node5" class="node">
<title>n4</title>
<polygon fill="none" stroke="black" points="888,-1144 676,-1144 676,-1121 888,-1121 888,-1144"/>
<text text-anchor="middle" x="782" y="-1128.8" font-family="Times,serif" font-size="14.00">TX / SCTP / COOKIE_ECHO</text>
</g>
<!-- n3&#45;&gt;n4 -->
<g id="edge6" class="edge">
<title>n3&#45;&gt;n4</title>
<path fill="none" stroke="black" d="M419.95,-1179.98C496.49,-1170.15 610.55,-1155.51 690.13,-1145.29"/>
<polygon fill="black" stroke="black" points="690.68,-1148.75 700.15,-1144.01 689.78,-1141.81 690.68,-1148.75"/>
</g>
<!-- n10 -->
<g id="node11" class="node">
<title>n10</title>
<polygon fill="none" stroke="black" points="427.5,-1144 248.5,-1144 248.5,-1121 427.5,-1121 427.5,-1144"/>
<text text-anchor="middle" x="338" y="-1128.8" font-family="Times,serif" font-size="14.00">TX / E2AP / id&#45;E2setup</text>
</g>
<!-- n3&#45;&gt;n10 -->
<g id="edge13" class="edge">
<title>n3&#45;&gt;n10</title>
<path fill="none" stroke="black" d="M338,-1179.78C338,-1172.61 338,-1162.95 338,-1154.31"/>
<polygon fill="black" stroke="black" points="341.5,-1154.17 338,-1144.17 334.5,-1154.17 341.5,-1154.17"/>
</g>
<!-- n13 -->
<g id="node14" class="node">
<title>n13</title>
<polygon fill="none" stroke="black" points="658.5,-1144 445.5,-1144 445.5,-1121 658.5,-1121 658.5,-1144"/>
<text text-anchor="middle" x="552" y="-1128.8" font-family="Times,serif" font-size="14.00">RX / SCTP / COOKIE_ECHO</text>
</g>
<!-- n3&#45;&gt;n13 -->
<g id="edge19" class="edge">
<title>n3&#45;&gt;n13</title>
<path fill="none" stroke="black" d="M377.5,-1179.98C412.75,-1170.59 464.53,-1156.8 502.53,-1146.68"/>
<polygon fill="black" stroke="black" points="503.61,-1150.01 512.37,-1144.06 501.8,-1143.25 503.61,-1150.01"/>
</g>
<!-- n5 -->
<g id="node6" class="node">
<title>n5</title>
<polygon fill="none" stroke="black" points="882,-1085 682,-1085 682,-1062 882,-1062 882,-1085"/>
<text text-anchor="middle" x="782" y="-1069.8" font-family="Times,serif" font-size="14.00">RX / SCTP / COOKIE_ACK</text>
</g>
<!-- n4&#45;&gt;n5 -->
<g id="edge7" class="edge">
<title>n4&#45;&gt;n5</title>
<path fill="none" stroke="black" d="M782,-1120.78C782,-1113.61 782,-1103.95 782,-1095.31"/>
<polygon fill="black" stroke="black" points="785.5,-1095.17 782,-1085.17 778.5,-1095.17 785.5,-1095.17"/>
</g>
<!-- n5&#45;&gt;n1 -->
<g id="edge25" class="edge">
<title>n5&#45;&gt;n1</title>
<path fill="none" stroke="black" d="M830.53,-1085C871.76,-1096.13 920.76,-1115.98 897,-1144 825.95,-1227.78 490.31,-1245.12 336.87,-1248.64"/>
<polygon fill="black" stroke="black" points="336.51,-1245.14 326.59,-1248.86 336.66,-1252.14 336.51,-1245.14"/>
</g>
<!-- n6 -->
<g id="node7" class="node">
<title>n6</title>
<polygon fill="none" stroke="black" points="1235,-1026 1047,-1026 1047,-1003 1235,-1003 1235,-1026"/>
<text text-anchor="middle" x="1141" y="-1010.8" font-family="Times,serif" font-size="14.00">TX / NGAP / id&#45;NGSetup</text>
</g>
<!-- n5&#45;&gt;n6 -->
<g id="edge8" class="edge">
<title>n5&#45;&gt;n6</title>
<path fill="none" stroke="black" d="M848.26,-1061.98C909.52,-1052.25 1000.5,-1037.81 1064.75,-1027.61"/>
<polygon fill="black" stroke="black" points="1065.49,-1031.03 1074.82,-1026.01 1064.39,-1024.12 1065.49,-1031.03"/>
</g>
<!-- n11 -->
<g id="node12" class="node">
<title>n11</title>
<polygon fill="none" stroke="black" points="455,-849 275,-849 275,-826 455,-826 455,-849"/>
<text text-anchor="middle" x="365" y="-833.8" font-family="Times,serif" font-size="14.00">RX / E2AP / id&#45;E2setup</text>
</g>
<!-- n5&#45;&gt;n11 -->
<g id="edge15" class="edge">
<title>n5&#45;&gt;n11</title>
<path fill="none" stroke="black" d="M681.99,-1064.49C553.06,-1052 339.09,-1023.27 286,-967 260.84,-940.33 258.08,-916.4 277,-885 285.79,-870.42 300.85,-860.17 316.06,-853.08"/>
<polygon fill="black" stroke="black" points="317.66,-856.2 325.49,-849.07 314.91,-849.76 317.66,-856.2"/>
</g>
<!-- n14 -->
<g id="node15" class="node">
<title>n14</title>
<polygon fill="none" stroke="black" points="1866,-908 1596,-908 1596,-885 1866,-885 1866,-908"/>
<text text-anchor="middle" x="1731" y="-892.8" font-family="Times,serif" font-size="14.00">RX / E1AP / id&#45;gNB&#45;CU&#45;UP&#45;E1Setup</text>
</g>
<!-- n5&#45;&gt;n14 -->
<g id="edge21" class="edge">
<title>n5&#45;&gt;n14</title>
<path fill="none" stroke="black" d="M882.22,-1066.99C976.23,-1060.73 1120.45,-1048.37 1244,-1026 1411.02,-995.76 1604.75,-937.5 1688.66,-911.1"/>
<polygon fill="black" stroke="black" points="1689.85,-914.39 1698.34,-908.04 1687.75,-907.71 1689.85,-914.39"/>
</g>
<!-- n15 -->
<g id="node16" class="node">
<title>n15</title>
<polygon fill="none" stroke="black" points="1028.5,-1026 849.5,-1026 849.5,-1003 1028.5,-1003 1028.5,-1026"/>
<text text-anchor="middle" x="939" y="-1010.8" font-family="Times,serif" font-size="14.00">TX / F1AP / id&#45;F1Setup</text>
</g>
<!-- n5&#45;&gt;n15 -->
<g id="edge26" class="edge">
<title>n5&#45;&gt;n15</title>
<path fill="none" stroke="black" d="M811.16,-1061.91C836.28,-1052.79 872.72,-1039.56 900.28,-1029.56"/>
<polygon fill="black" stroke="black" points="901.79,-1032.73 909.99,-1026.03 899.4,-1026.15 901.79,-1032.73"/>
</g>
<!-- n17 -->
<g id="node18" class="node">
<title>n17</title>
<polygon fill="none" stroke="black" points="813,-1026 673,-1026 673,-1003 813,-1003 813,-1026"/>
<text text-anchor="middle" x="743" y="-1010.8" font-family="Times,serif" font-size="14.00">TX / SCTP / DATA</text>
</g>
<!-- n5&#45;&gt;n17 -->
<g id="edge30" class="edge">
<title>n5&#45;&gt;n17</title>
<path fill="none" stroke="black" d="M774.66,-1061.78C769.43,-1054.14 762.26,-1043.65 756.07,-1034.6"/>
<polygon fill="black" stroke="black" points="758.84,-1032.45 750.3,-1026.17 753.06,-1036.4 758.84,-1032.45"/>
</g>
<!-- n7 -->
<g id="node8" class="node">
<title>n7</title>
<polygon fill="none" stroke="black" points="1294.5,-967 1151.5,-967 1151.5,-944 1294.5,-944 1294.5,-967"/>
<text text-anchor="middle" x="1223" y="-951.8" font-family="Times,serif" font-size="14.00">RX / SCTP / SACK</text>
</g>
<!-- n6&#45;&gt;n7 -->
<g id="edge9" class="edge">
<title>n6&#45;&gt;n7</title>
<path fill="none" stroke="black" d="M1156.42,-1002.78C1168.45,-994.42 1185.36,-982.66 1199.13,-973.09"/>
<polygon fill="black" stroke="black" points="1201.43,-975.75 1207.65,-967.17 1197.44,-970.01 1201.43,-975.75"/>
</g>
<!-- n7&#45;&gt;n1 -->
<g id="edge24" class="edge">
<title>n7&#45;&gt;n1</title>
<path fill="none" stroke="black" d="M1229.43,-967.27C1240.73,-987.27 1263,-1031.81 1263,-1072.5 1263,-1133.5 1263,-1133.5 1263,-1133.5 1263,-1226.66 571.32,-1245.09 336.74,-1248.66"/>
<polygon fill="black" stroke="black" points="336.53,-1245.16 326.59,-1248.81 336.64,-1252.16 336.53,-1245.16"/>
</g>
<!-- n7&#45;&gt;n7 -->
<g id="edge85" class="edge">
<title>n7&#45;&gt;n7</title>
<path fill="none" stroke="black" d="M1294.63,-965.37C1305.29,-963.83 1312.5,-960.54 1312.5,-955.5 1312.5,-952.27 1309.54,-949.76 1304.61,-947.97"/>
<polygon fill="black" stroke="black" points="1305.16,-944.5 1294.63,-945.63 1303.57,-951.32 1305.16,-944.5"/>
</g>
<!-- n8 -->
<g id="node9" class="node">
<title>n8</title>
<polygon fill="none" stroke="black" points="804,-849 614,-849 614,-826 804,-826 804,-849"/>
<text text-anchor="middle" x="709" y="-833.8" font-family="Times,serif" font-size="14.00">RX / NGAP / id&#45;NGSetup</text>
</g>
<!-- n7&#45;&gt;n8 -->
<g id="edge10" class="edge">
<title>n7&#45;&gt;n8</title>
<path fill="none" stroke="black" d="M1151.32,-950.16C1051.92,-943.48 877.7,-929.18 818,-908 784.17,-896 750.06,-871.86 729.23,-855.44"/>
<polygon fill="black" stroke="black" points="731.39,-852.69 721.41,-849.14 727,-858.14 731.39,-852.69"/>
</g>
<!-- n9 -->
<g id="node10" class="node">
<title>n9</title>
<polygon fill="none" stroke="black" points="923,-790 781,-790 781,-767 923,-767 923,-790"/>
<text text-anchor="middle" x="852" y="-774.8" font-family="Times,serif" font-size="14.00">TX / SCTP / SACK</text>
</g>
<!-- n7&#45;&gt;n9 -->
<g id="edge94" class="edge">
<title>n7&#45;&gt;n9</title>
<path fill="none" stroke="black" d="M1151.24,-953.65C1068.92,-948.95 935.81,-928.68 860,-849 847.67,-836.04 843.83,-815.66 844.44,-800.31"/>
<polygon fill="black" stroke="black" points="847.93,-800.54 845.61,-790.21 840.98,-799.74 847.93,-800.54"/>
</g>
<!-- n7&#45;&gt;n14 -->
<g id="edge23" class="edge">
<title>n7&#45;&gt;n14</title>
<path fill="none" stroke="black" d="M1294.61,-945.9C1379.83,-936.1 1522.92,-920.03 1621.93,-909.11"/>
<polygon fill="black" stroke="black" points="1622.41,-912.58 1631.97,-908.01 1621.64,-905.62 1622.41,-912.58"/>
</g>
<!-- n16 -->
<g id="node17" class="node">
<title>n16</title>
<polygon fill="none" stroke="black" points="1313.5,-849 1132.5,-849 1132.5,-826 1313.5,-826 1313.5,-849"/>
<text text-anchor="middle" x="1223" y="-833.8" font-family="Times,serif" font-size="14.00">RX / F1AP / id&#45;F1Setup</text>
</g>
<!-- n7&#45;&gt;n16 -->
<g id="edge28" class="edge">
<title>n7&#45;&gt;n16</title>
<path fill="none" stroke="black" d="M1204.31,-943.95C1192.04,-935.88 1177.02,-923.5 1170,-908 1165.78,-898.69 1165.78,-894.31 1170,-885 1175.48,-872.89 1185.85,-862.69 1195.98,-854.95"/>
<polygon fill="black" stroke="black" points="1198.17,-857.69 1204.31,-849.05 1194.12,-851.97 1198.17,-857.69"/>
</g>
<!-- n18 -->
<g id="node19" class="node">
<title>n18</title>
<polygon fill="none" stroke="black" points="1164.5,-731 1023.5,-731 1023.5,-708 1164.5,-708 1164.5,-731"/>
<text text-anchor="middle" x="1094" y="-715.8" font-family="Times,serif" font-size="14.00">RX / SCTP / DATA</text>
</g>
<!-- n7&#45;&gt;n18 -->
<g id="edge32" class="edge">
<title>n7&#45;&gt;n18</title>
<path fill="none" stroke="black" d="M1214.5,-943.57C1204.21,-928.93 1189.81,-902.73 1203,-885 1238.48,-837.32 1355.05,-876.05 1323,-826 1289.46,-773.62 1222.6,-746.88 1169.75,-733.46"/>
<polygon fill="black" stroke="black" points="1170.26,-729.99 1159.71,-731.03 1168.61,-736.79 1170.26,-729.99"/>
</g>
<!-- n21 -->
<g id="node22" class="node">
<title>n21</title>
<polygon fill="none" stroke="black" points="1484,-731 1290,-731 1290,-708 1484,-708 1484,-731"/>
<text text-anchor="middle" x="1387" y="-715.8" font-family="Times,serif" font-size="14.00">RX / SCTP / HEARTBEAT</text>
</g>
<!-- n7&#45;&gt;n21 -->
<g id="edge44" class="edge">
<title>n7&#45;&gt;n21</title>
<path fill="none" stroke="black" d="M1294.7,-947.59C1346.84,-941.07 1411.03,-929.05 1428,-908 1468.76,-857.44 1419.78,-776.7 1396.94,-739.91"/>
<polygon fill="black" stroke="black" points="1399.77,-737.82 1391.53,-731.15 1393.81,-741.5 1399.77,-737.82"/>
</g>
<!-- n31 -->
<g id="node32" class="node">
<title>n31</title>
<polygon fill="none" stroke="black" points="678.5,-790 415.5,-790 415.5,-767 678.5,-767 678.5,-790"/>
<text text-anchor="middle" x="547" y="-774.8" font-family="Times,serif" font-size="14.00">TX / NGAP / id&#45;InitialContextSetup</text>
</g>
<!-- n7&#45;&gt;n31 -->
<g id="edge62" class="edge">
<title>n7&#45;&gt;n31</title>
<path fill="none" stroke="black" d="M1151.36,-952.53C1061.15,-948.83 901.88,-938.23 769,-908 693.47,-890.82 668.48,-893.4 605,-849 585.91,-835.65 569.48,-814.46 559.03,-798.98"/>
<polygon fill="black" stroke="black" points="561.71,-796.68 553.33,-790.2 555.84,-800.5 561.71,-796.68"/>
</g>
<!-- n37 -->
<g id="node38" class="node">
<title>n37</title>
<polygon fill="none" stroke="black" points="1720.5,-82 1401.5,-82 1401.5,-59 1720.5,-59 1720.5,-82"/>
<text text-anchor="middle" x="1561" y="-66.8" font-family="Times,serif" font-size="14.00">TX / NGAP / id&#45;PDUSessionResourceSetup</text>
</g>
<!-- n7&#45;&gt;n37 -->
<g id="edge86" class="edge">
<title>n7&#45;&gt;n37</title>
<path fill="none" stroke="black" d="M1294.78,-953.88C1349.49,-950.43 1425.06,-939.5 1484,-908 1521.57,-887.92 1550,-881.1 1550,-838.5 1550,-838.5 1550,-838.5 1550,-187.5 1550,-154.09 1550.84,-115.28 1553.88,-92.09"/>
<polygon fill="black" stroke="black" points="1557.36,-92.49 1555.55,-82.06 1550.45,-91.34 1557.36,-92.49"/>
</g>
<!-- n38 -->
<g id="node39" class="node">
<title>n38</title>
<polygon fill="none" stroke="black" points="1428,-908 1212,-908 1212,-885 1428,-885 1428,-908"/>
<text text-anchor="middle" x="1320" y="-892.8" font-family="Times,serif" font-size="14.00">TX / E2AP / id&#45;RICindication</text>
</g>
<!-- n7&#45;&gt;n38 -->
<g id="edge88" class="edge">
<title>n7&#45;&gt;n38</title>
<path fill="none" stroke="black" d="M1241.24,-943.78C1255.88,-935.18 1276.63,-922.99 1293.15,-913.28"/>
<polygon fill="black" stroke="black" points="1294.99,-916.26 1301.84,-908.17 1291.44,-910.22 1294.99,-916.26"/>
</g>
<!-- n8&#45;&gt;n9 -->
<g id="edge11" class="edge">
<title>n8&#45;&gt;n9</title>
<path fill="none" stroke="black" d="M735.56,-825.91C758.24,-816.87 791.05,-803.79 816.07,-793.82"/>
<polygon fill="black" stroke="black" points="817.59,-796.98 825.58,-790.03 814.99,-790.48 817.59,-796.98"/>
</g>
<!-- n9&#45;&gt;n1 -->
<g id="edge12" class="edge">
<title>n9&#45;&gt;n1</title>
<path fill="none" stroke="black" d="M780.73,-784.13C626.75,-794.28 276.05,-818.19 266,-826 174.62,-897.03 182,-956.76 182,-1072.5 182,-1133.5 182,-1133.5 182,-1133.5 182,-1174.31 215.66,-1211.56 238.76,-1232.32"/>
<polygon fill="black" stroke="black" points="236.56,-1235.05 246.41,-1238.95 241.15,-1229.76 236.56,-1235.05"/>
</g>
<!-- n9&#45;&gt;n7 -->
<g id="edge43" class="edge">
<title>n9&#45;&gt;n7</title>
<path fill="none" stroke="black" d="M857.45,-790.21C860.47,-805.33 862.67,-832.89 878,-849 946.75,-921.25 1062.61,-944.65 1140.95,-951.89"/>
<polygon fill="black" stroke="black" points="1141.01,-955.41 1151.27,-952.77 1141.61,-948.44 1141.01,-955.41"/>
</g>
<!-- n9&#45;&gt;n9 -->
<g id="edge35" class="edge">
<title>n9&#45;&gt;n9</title>
<path fill="none" stroke="black" d="M923.23,-788.37C933.83,-786.83 941,-783.54 941,-778.5 941,-775.27 938.06,-772.76 933.15,-770.97"/>
<polygon fill="black" stroke="black" points="933.76,-767.52 923.23,-768.63 932.16,-774.33 933.76,-767.52"/>
</g>
<!-- n12 -->
<g id="node13" class="node">
<title>n12</title>
<polygon fill="none" stroke="black" points="705,-731 571,-731 571,-708 705,-708 705,-731"/>
<text text-anchor="middle" x="638" y="-715.8" font-family="Times,serif" font-size="14.00">RX / SCTP / INIT</text>
</g>
<!-- n9&#45;&gt;n12 -->
<g id="edge17" class="edge">
<title>n9&#45;&gt;n12</title>
<path fill="none" stroke="black" d="M812.5,-766.98C777.25,-757.59 725.47,-743.8 687.47,-733.68"/>
<polygon fill="black" stroke="black" points="688.2,-730.25 677.63,-731.06 686.39,-737.01 688.2,-730.25"/>
</g>
<!-- n9&#45;&gt;n17 -->
<g id="edge36" class="edge">
<title>n9&#45;&gt;n17</title>
<path fill="none" stroke="black" d="M780.8,-783.06C715.94,-787.97 627.01,-799.47 605,-826 554.39,-887.03 662.36,-964.61 715.6,-997.55"/>
<polygon fill="black" stroke="black" points="713.89,-1000.61 724.25,-1002.81 717.52,-994.63 713.89,-1000.61"/>
</g>
<!-- n9&#45;&gt;n18 -->
<g id="edge34" class="edge">
<title>n9&#45;&gt;n18</title>
<path fill="none" stroke="black" d="M891.29,-766.98C929.97,-757.47 989.39,-743.44 1033.96,-733.29"/>
<polygon fill="black" stroke="black" points="1034.82,-736.68 1043.8,-731.06 1033.27,-729.86 1034.82,-736.68"/>
</g>
<!-- n9&#45;&gt;n21 -->
<g id="edge95" class="edge">
<title>n9&#45;&gt;n21</title>
<path fill="none" stroke="black" d="M923.2,-769.39C1014.53,-759.42 1173.67,-742.45 1279.7,-731.35"/>
<polygon fill="black" stroke="black" points="1280.21,-734.82 1289.79,-730.3 1279.48,-727.86 1280.21,-734.82"/>
</g>
<!-- n40 -->
<g id="node41" class="node">
<title>n40</title>
<polygon fill="none" stroke="black" points="1005,-731 723,-731 723,-708 1005,-708 1005,-731"/>
<text text-anchor="middle" x="864" y="-715.8" font-family="Times,serif" font-size="14.00">RX / E2AP / id&#45;RICsubscriptionDelete</text>
</g>
<!-- n9&#45;&gt;n40 -->
<g id="edge100" class="edge">
<title>n9&#45;&gt;n40</title>
<path fill="none" stroke="black" d="M848.85,-766.78C849.1,-759.45 850.83,-749.52 853.25,-740.74"/>
<polygon fill="black" stroke="black" points="856.59,-741.77 856.35,-731.17 849.94,-739.61 856.59,-741.77"/>
</g>
<!-- n10&#45;&gt;n5 -->
<g id="edge14" class="edge">
<title>n10&#45;&gt;n5</title>
<path fill="none" stroke="black" d="M419.95,-1120.98C496.49,-1111.15 610.55,-1096.51 690.13,-1086.29"/>
<polygon fill="black" stroke="black" points="690.68,-1089.75 700.15,-1085.01 689.78,-1082.81 690.68,-1089.75"/>
</g>
<!-- n11&#45;&gt;n9 -->
<g id="edge16" class="edge">
<title>n11&#45;&gt;n9</title>
<path fill="none" stroke="black" d="M454.89,-825.98C545.3,-815.4 683.48,-799.22 770.71,-789.01"/>
<polygon fill="black" stroke="black" points="771.3,-792.47 780.82,-787.83 770.48,-785.52 771.3,-792.47"/>
</g>
<!-- n12&#45;&gt;n3 -->
<g id="edge18" class="edge">
<title>n12&#45;&gt;n3</title>
<path fill="none" stroke="black" d="M570.72,-723.67C443.87,-731.5 182,-757.26 182,-836.5 182,-897.5 182,-897.5 182,-897.5 182,-1009.95 168.34,-1056.53 239,-1144 251.03,-1158.89 268.94,-1169.27 286.24,-1176.37"/>
<polygon fill="black" stroke="black" points="285.15,-1179.71 295.74,-1179.99 287.64,-1173.16 285.15,-1179.71"/>
</g>
<!-- n13&#45;&gt;n5 -->
<g id="edge20" class="edge">
<title>n13&#45;&gt;n5</title>
<path fill="none" stroke="black" d="M594.45,-1120.98C632.59,-1111.53 688.7,-1097.62 729.61,-1087.48"/>
<polygon fill="black" stroke="black" points="730.54,-1090.86 739.4,-1085.06 728.86,-1084.06 730.54,-1090.86"/>
</g>
<!-- n14&#45;&gt;n7 -->
<g id="edge22" class="edge">
<title>n14&#45;&gt;n7</title>
<path fill="none" stroke="black" d="M1642.51,-908.03C1547.34,-918.93 1397.35,-935.74 1304.84,-945.88"/>
<polygon fill="black" stroke="black" points="1304.24,-942.42 1294.68,-946.99 1305,-949.38 1304.24,-942.42"/>
</g>
<!-- n15&#45;&gt;n7 -->
<g id="edge27" class="edge">
<title>n15&#45;&gt;n7</title>
<path fill="none" stroke="black" d="M991.42,-1002.98C1039.2,-993.39 1109.86,-979.21 1160.55,-969.03"/>
<polygon fill="black" stroke="black" points="1161.29,-972.46 1170.4,-967.06 1159.91,-965.59 1161.29,-972.46"/>
</g>
<!-- n16&#45;&gt;n9 -->
<g id="edge29" class="edge">
<title>n16&#45;&gt;n9</title>
<path fill="none" stroke="black" d="M1154.52,-825.98C1091.09,-816.23 996.81,-801.75 930.39,-791.54"/>
<polygon fill="black" stroke="black" points="930.81,-788.07 920.39,-790.01 929.75,-794.99 930.81,-788.07"/>
</g>
<!-- n17&#45;&gt;n7 -->
<g id="edge31" class="edge">
<title>n17&#45;&gt;n7</title>
<path fill="none" stroke="black" d="M813.05,-1005.18C900.21,-994.83 1048.77,-977.19 1141.1,-966.23"/>
<polygon fill="black" stroke="black" points="1141.72,-969.68 1151.24,-965.02 1140.9,-962.73 1141.72,-969.68"/>
</g>
<!-- n17&#45;&gt;n17 -->
<g id="edge37" class="edge">
<title>n17&#45;&gt;n17</title>
<path fill="none" stroke="black" d="M813.07,-1024.42C823.75,-1022.9 831,-1019.6 831,-1014.5 831,-1011.23 828.02,-1008.7 823.08,-1006.91"/>
<polygon fill="black" stroke="black" points="823.6,-1003.44 813.07,-1004.58 822.02,-1010.26 823.6,-1003.44"/>
</g>
<!-- n19 -->
<g id="node20" class="node">
<title>n19</title>
<polygon fill="none" stroke="black" points="531,-967 295,-967 295,-944 531,-944 531,-967"/>
<text text-anchor="middle" x="413" y="-951.8" font-family="Times,serif" font-size="14.00">RX / E2AP / id&#45;RICsubscription</text>
</g>
<!-- n17&#45;&gt;n19 -->
<g id="edge38" class="edge">
<title>n17&#45;&gt;n19</title>
<path fill="none" stroke="black" d="M682.09,-1002.98C626.02,-993.29 542.84,-978.93 483.82,-968.73"/>
<polygon fill="black" stroke="black" points="484.29,-965.26 473.84,-967.01 483.09,-972.16 484.29,-965.26"/>
</g>
<!-- n39 -->
<g id="node40" class="node">
<title>n39</title>
<polygon fill="none" stroke="black" points="1096,-849 878,-849 878,-826 1096,-826 1096,-849"/>
<text text-anchor="middle" x="987" y="-833.8" font-family="Times,serif" font-size="14.00">RX / E2AP / id&#45;RICindication</text>
</g>
<!-- n17&#45;&gt;n39 -->
<g id="edge99" class="edge">
<title>n17&#45;&gt;n39</title>
<path fill="none" stroke="black" d="M754.45,-1002.82C791.56,-973.21 907.37,-889.99 960.34,-854.67"/>
<polygon fill="black" stroke="black" points="962.45,-857.47 968.87,-849.04 958.59,-851.63 962.45,-857.47"/>
</g>
<!-- n18&#45;&gt;n9 -->
<g id="edge33" class="edge">
<title>n18&#45;&gt;n9</title>
<path fill="none" stroke="black" d="M1054.56,-731.06C1015.84,-740.58 956.41,-754.6 911.88,-764.75"/>
<polygon fill="black" stroke="black" points="911.02,-761.35 902.04,-766.98 912.57,-768.18 911.02,-761.35"/>
</g>
<!-- n19&#45;&gt;n9 -->
<g id="edge42" class="edge">
<title>n19&#45;&gt;n9</title>
<path fill="none" stroke="black" d="M459.78,-943.94C482.76,-936.85 509.6,-925.52 529,-908 559.54,-880.42 538.66,-850.12 572,-826 603.02,-803.57 699.51,-791.24 770.58,-785.01"/>
<polygon fill="black" stroke="black" points="771.21,-788.47 780.87,-784.13 770.61,-781.49 771.21,-788.47"/>
</g>
<!-- n19&#45;&gt;n19 -->
<g id="edge41" class="edge">
<title>n19&#45;&gt;n19</title>
<path fill="none" stroke="black" d="M531.44,-964.14C542.22,-962.35 549,-959.46 549,-955.5 549,-952.96 546.22,-950.86 541.38,-949.21"/>
<polygon fill="black" stroke="black" points="541.98,-945.76 531.44,-946.86 540.37,-952.57 541.98,-945.76"/>
</g>
<!-- n20 -->
<g id="node21" class="node">
<title>n20</title>
<polygon fill="none" stroke="black" points="520,-908 286,-908 286,-885 520,-885 520,-908"/>
<text text-anchor="middle" x="403" y="-892.8" font-family="Times,serif" font-size="14.00">TX / E2AP / id&#45;RICsubscription</text>
</g>
<!-- n19&#45;&gt;n20 -->
<g id="edge39" class="edge">
<title>n19&#45;&gt;n20</title>
<path fill="none" stroke="black" d="M405.71,-943.78C403.19,-936.61 401.13,-926.95 400.12,-918.31"/>
<polygon fill="black" stroke="black" points="403.61,-917.93 399.47,-908.17 396.62,-918.38 403.61,-917.93"/>
</g>
<!-- n20&#45;&gt;n19 -->
<g id="edge40" class="edge">
<title>n20&#45;&gt;n19</title>
<path fill="none" stroke="black" d="M410.28,-908.17C412.79,-915.33 414.86,-924.99 415.87,-933.63"/>
<polygon fill="black" stroke="black" points="412.39,-934.03 416.53,-943.78 419.37,-933.57 412.39,-934.03"/>
</g>
<!-- n21&#45;&gt;n7 -->
<g id="edge61" class="edge">
<title>n21&#45;&gt;n7</title>
<path fill="none" stroke="black" d="M1399.6,-731.15C1428.31,-762.03 1490.4,-852.92 1446,-908 1428.53,-929.68 1361.01,-941.77 1304.73,-948.15"/>
<polygon fill="black" stroke="black" points="1304.3,-944.68 1294.73,-949.24 1305.05,-951.64 1304.3,-944.68"/>
</g>
<!-- n21&#45;&gt;n9 -->
<g id="edge93" class="edge">
<title>n21&#45;&gt;n9</title>
<path fill="none" stroke="black" d="M1293.8,-731C1191.8,-742.08 1030.02,-759.3 933.09,-769.38"/>
<polygon fill="black" stroke="black" points="932.63,-765.91 923.04,-770.42 933.35,-772.87 932.63,-765.91"/>
</g>
<!-- n22 -->
<g id="node23" class="node">
<title>n22</title>
<polygon fill="none" stroke="black" points="1308,-672 1078,-672 1078,-649 1308,-649 1308,-672"/>
<text text-anchor="middle" x="1193" y="-656.8" font-family="Times,serif" font-size="14.00">TX / SCTP / HEARTBEAT_ACK</text>
</g>
<!-- n21&#45;&gt;n22 -->
<g id="edge45" class="edge">
<title>n21&#45;&gt;n22</title>
<path fill="none" stroke="black" d="M1350.96,-707.91C1319.25,-698.59 1272.91,-684.98 1238.62,-674.9"/>
<polygon fill="black" stroke="black" points="1239.42,-671.49 1228.84,-672.03 1237.45,-678.21 1239.42,-671.49"/>
</g>
<!-- n21&#45;&gt;n38 -->
<g id="edge97" class="edge">
<title>n21&#45;&gt;n38</title>
<path fill="none" stroke="black" d="M1391.21,-731.34C1399.51,-754.59 1415.4,-810.28 1394,-849 1386.37,-862.81 1372.72,-873.08 1359.21,-880.39"/>
<polygon fill="black" stroke="black" points="1357.35,-877.41 1349.95,-885 1360.47,-883.68 1357.35,-877.41"/>
</g>
<!-- n23 -->
<g id="node24" class="node">
<title>n23</title>
<polygon fill="none" stroke="black" points="1055.5,-613 718.5,-613 718.5,-590 1055.5,-590 1055.5,-613"/>
<text text-anchor="middle" x="887" y="-597.8" font-family="Times,serif" font-size="14.00">TX / F1AP / id&#45;InitialULRRCMessageTransfer</text>
</g>
<!-- n22&#45;&gt;n23 -->
<g id="edge46" class="edge">
<title>n22&#45;&gt;n23</title>
<path fill="none" stroke="black" d="M1136.52,-648.98C1084.74,-639.33 1008.03,-625.05 953.35,-614.86"/>
<polygon fill="black" stroke="black" points="953.88,-611.4 943.41,-613.01 952.6,-618.28 953.88,-611.4"/>
</g>
<!-- n22&#45;&gt;n38 -->
<g id="edge96" class="edge">
<title>n22&#45;&gt;n38</title>
<path fill="none" stroke="black" d="M1204.62,-672.06C1220.89,-686.52 1251.77,-712.75 1281,-731 1312.37,-750.58 1336.31,-735.71 1356,-767 1375.41,-797.85 1367.79,-814.51 1356,-849 1352.42,-859.47 1345.42,-869.41 1338.54,-877.39"/>
<polygon fill="black" stroke="black" points="1335.78,-875.22 1331.56,-884.93 1340.92,-879.97 1335.78,-875.22"/>
</g>
<!-- n24 -->
<g id="node25" class="node">
<title>n24</title>
<polygon fill="none" stroke="black" points="1035,-554 739,-554 739,-531 1035,-531 1035,-554"/>
<text text-anchor="middle" x="887" y="-538.8" font-family="Times,serif" font-size="14.00">RX / F1AP / id&#45;DLRRCMessageTransfer</text>
</g>
<!-- n23&#45;&gt;n24 -->
<g id="edge47" class="edge">
<title>n23&#45;&gt;n24</title>
<path fill="none" stroke="black" d="M881.59,-589.78C880.33,-582.61 879.96,-572.95 880.47,-564.31"/>
<polygon fill="black" stroke="black" points="883.97,-564.5 881.6,-554.17 877.02,-563.73 883.97,-564.5"/>
</g>
<!-- n24&#45;&gt;n23 -->
<g id="edge52" class="edge">
<title>n24&#45;&gt;n23</title>
<path fill="none" stroke="black" d="M892.4,-554.17C893.66,-561.33 894.04,-570.99 893.53,-579.63"/>
<polygon fill="black" stroke="black" points="890.03,-579.46 892.41,-589.78 896.99,-580.22 890.03,-579.46"/>
</g>
<!-- n25 -->
<g id="node26" class="node">
<title>n25</title>
<polygon fill="none" stroke="black" points="1227.5,-200 932.5,-200 932.5,-177 1227.5,-177 1227.5,-200"/>
<text text-anchor="middle" x="1080" y="-184.8" font-family="Times,serif" font-size="14.00">TX / F1AP / id&#45;ULRRCMessageTransfer</text>
</g>
<!-- n24&#45;&gt;n25 -->
<g id="edge48" class="edge">
<title>n24&#45;&gt;n25</title>
<path fill="none" stroke="black" d="M883.61,-530.81C882.7,-506.34 894.52,-445.88 930,-413 968.66,-377.17 1008.83,-417.13 1043,-377 1083.61,-329.31 1079.31,-248.9 1078.13,-210.78"/>
<polygon fill="black" stroke="black" points="1081.62,-210.31 1077.92,-200.39 1074.63,-210.46 1081.62,-210.31"/>
</g>
<!-- n36 -->
<g id="node37" class="node">
<title>n36</title>
<polygon fill="none" stroke="black" points="1264.5,-495 951.5,-495 951.5,-472 1264.5,-472 1264.5,-495"/>
<text text-anchor="middle" x="1108" y="-479.8" font-family="Times,serif" font-size="14.00">RX / E1AP / id&#45;bearerContextModification</text>
</g>
<!-- n24&#45;&gt;n36 -->
<g id="edge75" class="edge">
<title>n24&#45;&gt;n36</title>
<path fill="none" stroke="black" d="M922.66,-530.91C957.65,-521.45 1011.36,-507.57 1052.02,-497.45"/>
<polygon fill="black" stroke="black" points="1052.93,-500.83 1061.79,-495.03 1051.24,-494.04 1052.93,-500.83"/>
</g>
<!-- n25&#45;&gt;n7 -->
<g id="edge84" class="edge">
<title>n25&#45;&gt;n7</title>
<path fill="none" stroke="black" d="M1216.98,-200.03C1343.51,-213.64 1512,-243.42 1512,-305.5 1512,-838.5 1512,-838.5 1512,-838.5 1512,-875.79 1496.13,-887.47 1465,-908 1439,-925.14 1364.32,-937.83 1304.72,-945.58"/>
<polygon fill="black" stroke="black" points="1304.02,-942.14 1294.54,-946.87 1304.9,-949.08 1304.02,-942.14"/>
</g>
<!-- n25&#45;&gt;n21 -->
<g id="edge60" class="edge">
<title>n25&#45;&gt;n21</title>
<path fill="none" stroke="black" d="M1205,-200.04C1269.98,-213.15 1336,-242.07 1336,-305.5 1336,-602.5 1336,-602.5 1336,-602.5 1336,-639.27 1357.74,-677.47 1372.83,-699.56"/>
<polygon fill="black" stroke="black" points="1370.17,-701.86 1378.81,-707.99 1375.88,-697.81 1370.17,-701.86"/>
</g>
<!-- n25&#45;&gt;n24 -->
<g id="edge57" class="edge">
<title>n25&#45;&gt;n24</title>
<path fill="none" stroke="black" d="M1085.98,-200.39C1095.94,-231.92 1105.81,-324.37 1061,-377 1026.83,-417.13 986.66,-377.17 948,-413 916.54,-442.15 903.68,-493 895.73,-521.2"/>
<polygon fill="black" stroke="black" points="892.37,-520.23 892.9,-530.81 899.09,-522.21 892.37,-520.23"/>
</g>
<!-- n26 -->
<g id="node27" class="node">
<title>n26</title>
<polygon fill="none" stroke="black" points="1345.5,-141 1094.5,-141 1094.5,-118 1345.5,-118 1345.5,-141"/>
<text text-anchor="middle" x="1220" y="-125.8" font-family="Times,serif" font-size="14.00">TX / NGAP / id&#45;InitialUEMessage</text>
</g>
<!-- n25&#45;&gt;n26 -->
<g id="edge49" class="edge">
<title>n25&#45;&gt;n26</title>
<path fill="none" stroke="black" d="M1106,-176.91C1128.2,-167.87 1160.33,-154.79 1184.82,-144.82"/>
<polygon fill="black" stroke="black" points="1186.19,-148.04 1194.13,-141.03 1183.55,-141.56 1186.19,-148.04"/>
</g>
<!-- n28 -->
<g id="node29" class="node">
<title>n28</title>
<polygon fill="none" stroke="black" points="817,-141 545,-141 545,-118 817,-118 817,-141"/>
<text text-anchor="middle" x="681" y="-125.8" font-family="Times,serif" font-size="14.00">TX / NGAP / id&#45;UplinkNASTransport</text>
</g>
<!-- n25&#45;&gt;n28 -->
<g id="edge53" class="edge">
<title>n25&#45;&gt;n28</title>
<path fill="none" stroke="black" d="M1006.35,-176.98C938,-167.21 836.32,-152.69 764.87,-142.48"/>
<polygon fill="black" stroke="black" points="764.95,-138.96 754.56,-141.01 763.96,-145.89 764.95,-138.96"/>
</g>
<!-- n30 -->
<g id="node31" class="node">
<title>n30</title>
<polygon fill="none" stroke="black" points="1043,-377 685,-377 685,-354 1043,-354 1043,-377"/>
<text text-anchor="middle" x="864" y="-361.8" font-family="Times,serif" font-size="14.00">TX / NGAP / id&#45;UERadioCapabilityInfoIndication</text>
</g>
<!-- n25&#45;&gt;n30 -->
<g id="edge58" class="edge">
<title>n25&#45;&gt;n30</title>
<path fill="none" stroke="black" d="M1073.85,-200.32C1059.59,-224.53 1021.97,-283.63 976,-318 956.86,-332.31 932.67,-343.07 911.67,-350.62"/>
<polygon fill="black" stroke="black" points="910.28,-347.4 901.97,-353.97 912.56,-354.01 910.28,-347.4"/>
</g>
<!-- n32 -->
<g id="node33" class="node">
<title>n32</title>
<polygon fill="none" stroke="black" points="1268,-436 948,-436 948,-413 1268,-413 1268,-436"/>
<text text-anchor="middle" x="1108" y="-420.8" font-family="Times,serif" font-size="14.00">RX / NGAP / id&#45;PDUSessionResourceSetup</text>
</g>
<!-- n25&#45;&gt;n32 -->
<g id="edge65" class="edge">
<title>n25&#45;&gt;n32</title>
<path fill="none" stroke="black" d="M1086.89,-200.07C1092.41,-209.18 1099.75,-222.89 1103,-236 1117.64,-295.04 1113.58,-367.74 1110.31,-402.74"/>
<polygon fill="black" stroke="black" points="1106.83,-402.41 1109.3,-412.71 1113.79,-403.12 1106.83,-402.41"/>
</g>
<!-- n34 -->
<g id="node35" class="node">
<title>n34</title>
<polygon fill="none" stroke="black" points="1076.5,-141 835.5,-141 835.5,-118 1076.5,-118 1076.5,-141"/>
<text text-anchor="middle" x="956" y="-125.8" font-family="Times,serif" font-size="14.00">RX / F1AP / id&#45;UEContextSetup</text>
</g>
<!-- n25&#45;&gt;n34 -->
<g id="edge80" class="edge">
<title>n25&#45;&gt;n34</title>
<path fill="none" stroke="black" d="M1056.97,-176.91C1037.57,-167.99 1009.6,-155.14 988.02,-145.22"/>
<polygon fill="black" stroke="black" points="989.46,-142.03 978.91,-141.03 986.53,-148.39 989.46,-142.03"/>
</g>
<!-- n27 -->
<g id="node28" class="node">
<title>n27</title>
<polygon fill="none" stroke="black" points="966.5,-318 673.5,-318 673.5,-295 966.5,-295 966.5,-318"/>
<text text-anchor="middle" x="820" y="-302.8" font-family="Times,serif" font-size="14.00">RX / NGAP / id&#45;DownlinkNASTransport</text>
</g>
<!-- n26&#45;&gt;n27 -->
<g id="edge50" class="edge">
<title>n26&#45;&gt;n27</title>
<path fill="none" stroke="black" d="M1227.56,-141.06C1237.06,-155.77 1250.58,-182.55 1237,-200 1198.97,-248.86 1035.24,-278.69 924.62,-293.64"/>
<polygon fill="black" stroke="black" points="923.87,-290.21 914.42,-295 924.79,-297.15 923.87,-290.21"/>
</g>
<!-- n27&#45;&gt;n24 -->
<g id="edge51" class="edge">
<title>n27&#45;&gt;n24</title>
<path fill="none" stroke="black" d="M737.24,-318.09C696.97,-327.43 660.29,-344.82 676,-377 712.79,-452.32 802.57,-503.2 852.34,-526.66"/>
<polygon fill="black" stroke="black" points="851.19,-529.98 861.74,-530.99 854.12,-523.63 851.19,-529.98"/>
</g>
<!-- n33 -->
<g id="node34" class="node">
<title>n33</title>
<polygon fill="none" stroke="black" points="977,-259 711,-259 711,-236 977,-236 977,-259"/>
<text text-anchor="middle" x="844" y="-243.8" font-family="Times,serif" font-size="14.00">RX / E1AP / id&#45;bearerContextSetup</text>
</g>
<!-- n27&#45;&gt;n33 -->
<g id="edge68" class="edge">
<title>n27&#45;&gt;n33</title>
<path fill="none" stroke="black" d="M824.51,-294.78C827.63,-287.37 831.87,-277.3 835.6,-268.45"/>
<polygon fill="black" stroke="black" points="838.85,-269.75 839.51,-259.17 832.4,-267.03 838.85,-269.75"/>
</g>
<!-- n28&#45;&gt;n24 -->
<g id="edge64" class="edge">
<title>n28&#45;&gt;n24</title>
<path fill="none" stroke="black" d="M661.72,-141.26C632.66,-159.05 581,-197.58 581,-246.5 581,-425.5 581,-425.5 581,-425.5 581,-463.04 597.44,-474.67 629,-495 653.05,-510.5 715.71,-521.99 773.25,-529.67"/>
<polygon fill="black" stroke="black" points="772.81,-533.14 783.18,-530.96 773.71,-526.2 772.81,-533.14"/>
</g>
<!-- n28&#45;&gt;n27 -->
<g id="edge54" class="edge">
<title>n28&#45;&gt;n27</title>
<path fill="none" stroke="black" d="M679.5,-141.2C676.77,-165.17 673.62,-223.81 702,-259 714.42,-274.4 732.65,-284.72 751.09,-291.62"/>
<polygon fill="black" stroke="black" points="750.13,-294.99 760.72,-294.93 752.4,-288.37 750.13,-294.99"/>
</g>
<!-- n29 -->
<g id="node30" class="node">
<title>n29</title>
<polygon fill="none" stroke="black" points="725.5,-82 460.5,-82 460.5,-59 725.5,-59 725.5,-82"/>
<text text-anchor="middle" x="593" y="-66.8" font-family="Times,serif" font-size="14.00">RX / NGAP / id&#45;InitialContextSetup</text>
</g>
<!-- n28&#45;&gt;n29 -->
<g id="edge55" class="edge">
<title>n28&#45;&gt;n29</title>
<path fill="none" stroke="black" d="M664.45,-117.78C651.42,-109.34 633.04,-97.44 618.19,-87.82"/>
<polygon fill="black" stroke="black" points="619.77,-84.67 609.48,-82.17 615.97,-90.55 619.77,-84.67"/>
</g>
<!-- n28&#45;&gt;n33 -->
<g id="edge70" class="edge">
<title>n28&#45;&gt;n33</title>
<path fill="none" stroke="black" d="M696.01,-141.18C724.48,-161.44 786.55,-205.61 820.56,-229.82"/>
<polygon fill="black" stroke="black" points="818.78,-232.85 828.96,-235.79 822.84,-227.15 818.78,-232.85"/>
</g>
<!-- n29&#45;&gt;n24 -->
<g id="edge56" class="edge">
<title>n29&#45;&gt;n24</title>
<path fill="none" stroke="black" d="M576.23,-82.03C563.81,-90.51 547.17,-103.39 536,-118 515.45,-144.86 505,-153.68 505,-187.5 505,-425.5 505,-425.5 505,-425.5 505,-475.69 547.98,-474.99 594,-495 635.83,-513.19 683.77,-524.36 728.6,-531.19"/>
<polygon fill="black" stroke="black" points="728.32,-534.68 738.72,-532.66 729.33,-527.76 728.32,-534.68"/>
</g>
<!-- n30&#45;&gt;n24 -->
<g id="edge59" class="edge">
<title>n30&#45;&gt;n24</title>
<path fill="none" stroke="black" d="M865.39,-377.04C869.09,-405.26 879.3,-482.91 884.24,-520.53"/>
<polygon fill="black" stroke="black" points="880.82,-521.36 885.6,-530.82 887.76,-520.45 880.82,-521.36"/>
</g>
<!-- n30&#45;&gt;n27 -->
<g id="edge67" class="edge">
<title>n30&#45;&gt;n27</title>
<path fill="none" stroke="black" d="M855.72,-353.78C849.76,-346.06 841.56,-335.43 834.52,-326.31"/>
<polygon fill="black" stroke="black" points="837.12,-323.95 828.24,-318.17 831.58,-328.23 837.12,-323.95"/>
</g>
<!-- n31&#45;&gt;n27 -->
<g id="edge63" class="edge">
<title>n31&#45;&gt;n27</title>
<path fill="none" stroke="black" d="M546.39,-766.95C545.27,-746.57 543,-700.39 543,-661.5 543,-661.5 543,-661.5 543,-423.5 543,-362.63 600.62,-333.15 663.29,-319.1"/>
<polygon fill="black" stroke="black" points="664.32,-322.46 673.39,-316.97 662.88,-315.61 664.32,-322.46"/>
</g>
<!-- n32&#45;&gt;n30 -->
<g id="edge66" class="edge">
<title>n32&#45;&gt;n30</title>
<path fill="none" stroke="black" d="M1062.96,-412.98C1022.34,-403.49 962.47,-389.5 919.02,-379.35"/>
<polygon fill="black" stroke="black" points="919.72,-375.92 909.19,-377.06 918.13,-382.74 919.72,-375.92"/>
</g>
<!-- n32&#45;&gt;n33 -->
<g id="edge77" class="edge">
<title>n32&#45;&gt;n33</title>
<path fill="none" stroke="black" d="M1100.71,-412.98C1090.63,-398.79 1071.46,-373.11 1052,-354 1021.49,-324.04 1013.54,-315.48 976,-295 950.3,-280.98 919.54,-269.85 894.19,-262.01"/>
<polygon fill="black" stroke="black" points="894.99,-258.59 884.4,-259.05 892.97,-265.29 894.99,-258.59"/>
</g>
<!-- n33&#45;&gt;n24 -->
<g id="edge69" class="edge">
<title>n33&#45;&gt;n24</title>
<path fill="none" stroke="black" d="M754.1,-259C691.43,-271.92 619,-300.67 619,-364.5 619,-425.5 619,-425.5 619,-425.5 619,-485.17 675.65,-514.5 736.87,-528.76"/>
<polygon fill="black" stroke="black" points="736.2,-532.2 746.72,-530.93 737.7,-525.36 736.2,-532.2"/>
</g>
<!-- n33&#45;&gt;n25 -->
<g id="edge79" class="edge">
<title>n33&#45;&gt;n25</title>
<path fill="none" stroke="black" d="M887.56,-235.98C926.77,-226.51 984.51,-212.56 1026.51,-202.42"/>
<polygon fill="black" stroke="black" points="1027.39,-205.81 1036.29,-200.06 1025.75,-199 1027.39,-205.81"/>
</g>
<!-- n33&#45;&gt;n33 -->
<g id="edge78" class="edge">
<title>n33&#45;&gt;n33</title>
<path fill="none" stroke="black" d="M977.02,-255.91C988.1,-254.1 995,-251.29 995,-247.5 995,-245.01 992.03,-242.95 986.86,-241.31"/>
<polygon fill="black" stroke="black" points="987.55,-237.88 977.02,-239.09 986.01,-244.71 987.55,-237.88"/>
</g>
<!-- n33&#45;&gt;n34 -->
<g id="edge71" class="edge">
<title>n33&#45;&gt;n34</title>
<path fill="none" stroke="black" d="M854.34,-235.79C873.59,-215.85 915.12,-172.84 938.71,-148.41"/>
<polygon fill="black" stroke="black" points="941.26,-150.8 945.69,-141.18 936.23,-145.94 941.26,-150.8"/>
</g>
<!-- n35 -->
<g id="node36" class="node">
<title>n35</title>
<polygon fill="none" stroke="black" points="1492.5,-23 1253.5,-23 1253.5,0 1492.5,0 1492.5,-23"/>
<text text-anchor="middle" x="1373" y="-7.8" font-family="Times,serif" font-size="14.00">TX / F1AP / id&#45;UEContextSetup</text>
</g>
<!-- n34&#45;&gt;n35 -->
<g id="edge72" class="edge">
<title>n34&#45;&gt;n35</title>
<path fill="none" stroke="black" d="M994.11,-117.9C1070.43,-96.67 1241.83,-48.99 1325.39,-25.75"/>
<polygon fill="black" stroke="black" points="1326.43,-29.09 1335.13,-23.04 1324.56,-22.34 1326.43,-29.09"/>
</g>
<!-- n34&#45;&gt;n37 -->
<g id="edge81" class="edge">
<title>n34&#45;&gt;n37</title>
<path fill="none" stroke="black" d="M1067.67,-117.98C1173.12,-108.04 1330.87,-93.18 1439.45,-82.95"/>
<polygon fill="black" stroke="black" points="1439.84,-86.43 1449.47,-82.01 1439.18,-79.46 1439.84,-86.43"/>
</g>
<!-- n35&#45;&gt;n36 -->
<g id="edge73" class="edge">
<title>n35&#45;&gt;n36</title>
<path fill="none" stroke="black" d="M1373.1,-23.15C1373.36,-50.46 1374,-125.22 1374,-187.5 1374,-366.5 1374,-366.5 1374,-366.5 1374,-426.28 1316.86,-455.56 1255.54,-469.78"/>
<polygon fill="black" stroke="black" points="1254.7,-466.38 1245.67,-471.93 1256.19,-473.22 1254.7,-466.38"/>
</g>
<!-- n36&#45;&gt;n24 -->
<g id="edge74" class="edge">
<title>n36&#45;&gt;n24</title>
<path fill="none" stroke="black" d="M1072.45,-495.06C1037.46,-504.52 983.66,-518.43 942.95,-528.56"/>
<polygon fill="black" stroke="black" points="942.03,-525.18 933.17,-530.98 943.72,-531.97 942.03,-525.18"/>
</g>
<!-- n36&#45;&gt;n25 -->
<g id="edge83" class="edge">
<title>n36&#45;&gt;n25</title>
<path fill="none" stroke="black" d="M1223.78,-471.94C1260.66,-462.59 1289.17,-445.2 1277,-413 1241.61,-319.33 1147.09,-239.52 1103.1,-206.17"/>
<polygon fill="black" stroke="black" points="1105.12,-203.31 1095.01,-200.13 1100.93,-208.92 1105.12,-203.31"/>
</g>
<!-- n36&#45;&gt;n32 -->
<g id="edge76" class="edge">
<title>n36&#45;&gt;n32</title>
<path fill="none" stroke="black" d="M1108,-471.78C1108,-464.61 1108,-454.95 1108,-446.31"/>
<polygon fill="black" stroke="black" points="1111.5,-446.17 1108,-436.17 1104.5,-446.17 1111.5,-446.17"/>
</g>
<!-- n37&#45;&gt;n7 -->
<g id="edge87" class="edge">
<title>n37&#45;&gt;n7</title>
<path fill="none" stroke="black" d="M1565.84,-82.06C1569.14,-102.44 1568,-148.63 1568,-187.5 1568,-838.5 1568,-838.5 1568,-838.5 1568,-881.1 1539.57,-887.92 1502,-908 1441.36,-940.42 1363.1,-951.05 1304.84,-954.16"/>
<polygon fill="black" stroke="black" points="1304.4,-950.68 1294.57,-954.65 1304.73,-957.67 1304.4,-950.68"/>
</g>
<!-- n37&#45;&gt;n35 -->
<g id="edge82" class="edge">
<title>n37&#45;&gt;n35</title>
<path fill="none" stroke="black" d="M1526.08,-58.91C1495.48,-49.63 1450.83,-36.1 1417.64,-26.03"/>
<polygon fill="black" stroke="black" points="1418.32,-22.58 1407.73,-23.03 1416.29,-29.28 1418.32,-22.58"/>
</g>
<!-- n38&#45;&gt;n39 -->
<g id="edge89" class="edge">
<title>n38&#45;&gt;n39</title>
<path fill="none" stroke="black" d="M1258.53,-884.98C1201.95,-875.29 1118.02,-860.93 1058.47,-850.73"/>
<polygon fill="black" stroke="black" points="1058.84,-847.25 1048.39,-849.01 1057.65,-854.15 1058.84,-847.25"/>
</g>
<!-- n39&#45;&gt;n9 -->
<g id="edge91" class="edge">
<title>n39&#45;&gt;n9</title>
<path fill="none" stroke="black" d="M961.92,-825.91C940.61,-816.91 909.81,-803.91 886.23,-793.95"/>
<polygon fill="black" stroke="black" points="887.52,-790.7 876.94,-790.03 884.79,-797.15 887.52,-790.7"/>
</g>
<!-- n39&#45;&gt;n17 -->
<g id="edge98" class="edge">
<title>n39&#45;&gt;n17</title>
<path fill="none" stroke="black" d="M975.73,-849.04C938.87,-878.48 823.08,-961.69 769.92,-997.16"/>
<polygon fill="black" stroke="black" points="767.76,-994.39 761.35,-1002.82 771.62,-1000.23 767.76,-994.39"/>
</g>
<!-- n39&#45;&gt;n21 -->
<g id="edge92" class="edge">
<title>n39&#45;&gt;n21</title>
<path fill="none" stroke="black" d="M1023.56,-825.9C1096.61,-804.71 1260.51,-757.18 1340.84,-733.89"/>
<polygon fill="black" stroke="black" points="1342.04,-737.18 1350.67,-731.04 1340.09,-730.46 1342.04,-737.18"/>
</g>
<!-- n39&#45;&gt;n39 -->
<g id="edge90" class="edge">
<title>n39&#45;&gt;n39</title>
<path fill="none" stroke="black" d="M1096.29,-846.37C1107.12,-844.59 1114,-841.63 1114,-837.5 1114,-834.85 1111.17,-832.69 1106.3,-831.01"/>
<polygon fill="black" stroke="black" points="1106.83,-827.53 1096.29,-828.63 1105.21,-834.35 1106.83,-827.53"/>
</g>
<!-- n40&#45;&gt;n9 -->
<g id="edge103" class="edge">
<title>n40&#45;&gt;n9</title>
<path fill="none" stroke="black" d="M867.16,-731.17C866.91,-738.49 865.18,-748.42 862.77,-757.21"/>
<polygon fill="black" stroke="black" points="859.42,-756.19 859.67,-766.78 866.08,-758.34 859.42,-756.19"/>
</g>
<!-- n41 -->
<g id="node42" class="node">
<title>n41</title>
<polygon fill="none" stroke="black" points="1004.5,-672 723.5,-672 723.5,-649 1004.5,-649 1004.5,-672"/>
<text text-anchor="middle" x="864" y="-656.8" font-family="Times,serif" font-size="14.00">TX / E2AP / id&#45;RICsubscriptionDelete</text>
</g>
<!-- n40&#45;&gt;n41 -->
<g id="edge101" class="edge">
<title>n40&#45;&gt;n41</title>
<path fill="none" stroke="black" d="M858.59,-707.78C857.33,-700.61 856.96,-690.95 857.47,-682.31"/>
<polygon fill="black" stroke="black" points="860.97,-682.5 858.6,-672.17 854.02,-681.73 860.97,-682.5"/>
</g>
<!-- n41&#45;&gt;n40 -->
<g id="edge102" class="edge">
<title>n41&#45;&gt;n40</title>
<path fill="none" stroke="black" d="M869.4,-672.17C870.66,-679.33 871.04,-688.99 870.53,-697.63"/>
<polygon fill="black" stroke="black" points="867.03,-697.46 869.41,-707.78 873.99,-698.22 867.03,-697.46"/>
</g>
</g>
</svg>
