<?xml version="1.0" encoding="UTF-8" standalone="no"?>
<!DOCTYPE svg PUBLIC "-//W3C//DTD SVG 1.1//EN"
 "http://www.w3.org/Graphics/SVG/1.1/DTD/svg11.dtd">
<!-- Generated by graphviz version 2.43.0 (0)
 -->
<!-- Title: %3 Pages: 1 -->
<svg width="646pt" height="680pt"
 viewBox="0.00 0.00 645.50 680.00" xmlns="http://www.w3.org/2000/svg" xmlns:xlink="http://www.w3.org/1999/xlink">
<g id="graph0" class="graph" transform="scale(1 1) rotate(0) translate(4 676)">
<title>%3</title>
<polygon fill="white" stroke="transparent" points="-4,4 -4,-676 641.5,-676 641.5,4 -4,4"/>
<!-- n0 -->
<g id="node1" class="node">
<title>n0</title>
<polygon fill="none" stroke="black" points="424.5,-672 370.5,-672 370.5,-649 424.5,-649 424.5,-672"/>
<text text-anchor="middle" x="397.5" y="-656.8" font-family="Times,serif" font-size="14.00">IDLE</text>
</g>
<!-- n1 -->
<g id="node2" class="node">
<title>n1</title>
<polygon fill="none" stroke="black" points="494.5,-613 300.5,-613 300.5,-590 494.5,-590 494.5,-613"/>
<text text-anchor="middle" x="397.5" y="-597.8" font-family="Times,serif" font-size="14.00">RX / SCTP / HEARTBEAT</text>
</g>
<!-- n0&#45;&gt;n1 -->
<g id="edge1" class="edge">
<title>n0&#45;&gt;n1</title>
<path fill="none" stroke="black" d="M397.5,-648.78C397.5,-641.61 397.5,-631.95 397.5,-623.31"/>
<polygon fill="black" stroke="black" points="401,-623.17 397.5,-613.17 394,-623.17 401,-623.17"/>
</g>
<!-- n2 -->
<g id="node3" class="node">
<title>n2</title>
<polygon fill="none" stroke="black" points="493.5,-495 263.5,-495 263.5,-472 493.5,-472 493.5,-495"/>
<text text-anchor="middle" x="378.5" y="-479.8" font-family="Times,serif" font-size="14.00">TX / SCTP / HEARTBEAT_ACK</text>
</g>
<!-- n1&#45;&gt;n2 -->
<g id="edge2" class="edge">
<title>n1&#45;&gt;n2</title>
<path fill="none" stroke="black" d="M326.59,-590C305.72,-583.24 285.12,-572.16 272.5,-554 254.54,-528.15 289.75,-509.49 324.31,-498.05"/>
<polygon fill="black" stroke="black" points="325.5,-501.35 334,-495.02 323.41,-494.67 325.5,-501.35"/>
</g>
<!-- n4 -->
<g id="node5" class="node">
<title>n4</title>
<polygon fill="none" stroke="black" points="513,-554 282,-554 282,-531 513,-531 513,-554"/>
<text text-anchor="middle" x="397.5" y="-538.8" font-family="Times,serif" font-size="14.00">RX / SCTP / HEARTBEAT_ACK</text>
</g>
<!-- n1&#45;&gt;n4 -->
<g id="edge5" class="edge">
<title>n1&#45;&gt;n4</title>
<path fill="none" stroke="black" d="M397.5,-589.78C397.5,-582.61 397.5,-572.95 397.5,-564.31"/>
<polygon fill="black" stroke="black" points="401,-564.17 397.5,-554.17 394,-564.17 401,-564.17"/>
</g>
<!-- n3 -->
<g id="node4" class="node">
<title>n3</title>
<polygon fill="none" stroke="black" points="637.5,-436 445.5,-436 445.5,-413 637.5,-413 637.5,-436"/>
<text text-anchor="middle" x="541.5" y="-420.8" font-family="Times,serif" font-size="14.00">TX / SCTP / HEARTBEAT</text>
</g>
<!-- n2&#45;&gt;n3 -->
<g id="edge3" class="edge">
<title>n2&#45;&gt;n3</title>
<path fill="none" stroke="black" d="M408.78,-471.91C434.97,-462.75 473.02,-449.45 501.68,-439.43"/>
<polygon fill="black" stroke="black" points="503.1,-442.64 511.39,-436.03 500.79,-436.03 503.1,-442.64"/>
</g>
<!-- n5 -->
<g id="node6" class="node">
<title>n5</title>
<polygon fill="none" stroke="black" points="427,-436 294,-436 294,-413 427,-413 427,-436"/>
<text text-anchor="middle" x="360.5" y="-420.8" font-family="Times,serif" font-size="14.00">TX / SCTP / INIT</text>
</g>
<!-- n2&#45;&gt;n5 -->
<g id="edge7" class="edge">
<title>n2&#45;&gt;n5</title>
<path fill="none" stroke="black" d="M375.11,-471.78C372.8,-464.45 369.66,-454.52 366.89,-445.74"/>
<polygon fill="black" stroke="black" points="370.22,-444.66 363.87,-436.17 363.54,-446.76 370.22,-444.66"/>
</g>
<!-- n3&#45;&gt;n1 -->
<g id="edge4" class="edge">
<title>n3&#45;&gt;n1</title>
<path fill="none" stroke="black" d="M543.14,-436.23C546.18,-460.25 550.01,-518.98 521.5,-554 508.9,-569.48 490.58,-579.81 471.87,-586.7"/>
<polygon fill="black" stroke="black" points="470.73,-583.39 462.38,-589.91 472.98,-590.02 470.73,-583.39"/>
</g>
<!-- n4&#45;&gt;n2 -->
<g id="edge6" class="edge">
<title>n4&#45;&gt;n2</title>
<path fill="none" stroke="black" d="M393.93,-530.78C391.48,-523.45 388.17,-513.52 385.25,-504.74"/>
<polygon fill="black" stroke="black" points="388.54,-503.55 382.06,-495.17 381.9,-505.77 388.54,-503.55"/>
</g>
<!-- n6 -->
<g id="node7" class="node">
<title>n6</title>
<polygon fill="none" stroke="black" points="446.5,-377 274.5,-377 274.5,-354 446.5,-354 446.5,-377"/>
<text text-anchor="middle" x="360.5" y="-361.8" font-family="Times,serif" font-size="14.00">RX / SCTP / INIT_ACK</text>
</g>
<!-- n5&#45;&gt;n6 -->
<g id="edge8" class="edge">
<title>n5&#45;&gt;n6</title>
<path fill="none" stroke="black" d="M360.5,-412.78C360.5,-405.61 360.5,-395.95 360.5,-387.31"/>
<polygon fill="black" stroke="black" points="364,-387.17 360.5,-377.17 357,-387.17 364,-387.17"/>
</g>
<!-- n7 -->
<g id="node8" class="node">
<title>n7</title>
<polygon fill="none" stroke="black" points="466.5,-318 254.5,-318 254.5,-295 466.5,-295 466.5,-318"/>
<text text-anchor="middle" x="360.5" y="-302.8" font-family="Times,serif" font-size="14.00">TX / SCTP / COOKIE_ECHO</text>
</g>
<!-- n6&#45;&gt;n7 -->
<g id="edge9" class="edge">
<title>n6&#45;&gt;n7</title>
<path fill="none" stroke="black" d="M360.5,-353.78C360.5,-346.61 360.5,-336.95 360.5,-328.31"/>
<polygon fill="black" stroke="black" points="364,-328.17 360.5,-318.17 357,-328.17 364,-328.17"/>
</g>
<!-- n8 -->
<g id="node9" class="node">
<title>n8</title>
<polygon fill="none" stroke="black" points="460.5,-259 260.5,-259 260.5,-236 460.5,-236 460.5,-259"/>
<text text-anchor="middle" x="360.5" y="-243.8" font-family="Times,serif" font-size="14.00">RX / SCTP / COOKIE_ACK</text>
</g>
<!-- n7&#45;&gt;n8 -->
<g id="edge10" class="edge">
<title>n7&#45;&gt;n8</title>
<path fill="none" stroke="black" d="M360.5,-294.78C360.5,-287.61 360.5,-277.95 360.5,-269.31"/>
<polygon fill="black" stroke="black" points="364,-269.17 360.5,-259.17 357,-269.17 364,-269.17"/>
</g>
<!-- n9 -->
<g id="node10" class="node">
<title>n9</title>
<polygon fill="none" stroke="black" points="430.5,-200 290.5,-200 290.5,-177 430.5,-177 430.5,-200"/>
<text text-anchor="middle" x="360.5" y="-184.8" font-family="Times,serif" font-size="14.00">TX / SCTP / DATA</text>
</g>
<!-- n8&#45;&gt;n9 -->
<g id="edge11" class="edge">
<title>n8&#45;&gt;n9</title>
<path fill="none" stroke="black" d="M360.5,-235.78C360.5,-228.61 360.5,-218.95 360.5,-210.31"/>
<polygon fill="black" stroke="black" points="364,-210.17 360.5,-200.17 357,-210.17 364,-210.17"/>
</g>
<!-- n9&#45;&gt;n9 -->
<g id="edge19" class="edge">
<title>n9&#45;&gt;n9</title>
<path fill="none" stroke="black" d="M430.57,-198.42C441.25,-196.9 448.5,-193.6 448.5,-188.5 448.5,-185.23 445.52,-182.7 440.58,-180.91"/>
<polygon fill="black" stroke="black" points="441.1,-177.44 430.57,-178.58 439.52,-184.26 441.1,-177.44"/>
</g>
<!-- n10 -->
<g id="node11" class="node">
<title>n10</title>
<polygon fill="none" stroke="black" points="206,-141 63,-141 63,-118 206,-118 206,-141"/>
<text text-anchor="middle" x="134.5" y="-125.8" font-family="Times,serif" font-size="14.00">RX / SCTP / SACK</text>
</g>
<!-- n9&#45;&gt;n10 -->
<g id="edge12" class="edge">
<title>n9&#45;&gt;n10</title>
<path fill="none" stroke="black" d="M318.78,-176.98C281.4,-167.55 226.41,-153.68 186.23,-143.55"/>
<polygon fill="black" stroke="black" points="186.91,-140.11 176.35,-141.06 185.19,-146.9 186.91,-140.11"/>
</g>
<!-- n13 -->
<g id="node14" class="node">
<title>n13</title>
<polygon fill="none" stroke="black" points="478.5,-141 242.5,-141 242.5,-118 478.5,-118 478.5,-141"/>
<text text-anchor="middle" x="360.5" y="-125.8" font-family="Times,serif" font-size="14.00">RX / E2AP / id&#45;RICsubscription</text>
</g>
<!-- n9&#45;&gt;n13 -->
<g id="edge20" class="edge">
<title>n9&#45;&gt;n13</title>
<path fill="none" stroke="black" d="M360.5,-176.78C360.5,-169.61 360.5,-159.95 360.5,-151.31"/>
<polygon fill="black" stroke="black" points="364,-151.17 360.5,-141.17 357,-151.17 364,-151.17"/>
</g>
<!-- n10&#45;&gt;n10 -->
<g id="edge26" class="edge">
<title>n10&#45;&gt;n10</title>
<path fill="none" stroke="black" d="M206.13,-139.37C216.79,-137.83 224,-134.54 224,-129.5 224,-126.27 221.04,-123.76 216.11,-121.97"/>
<polygon fill="black" stroke="black" points="216.66,-118.5 206.13,-119.63 215.07,-125.32 216.66,-118.5"/>
</g>
<!-- n11 -->
<g id="node12" class="node">
<title>n11</title>
<polygon fill="none" stroke="black" points="141,-82 0,-82 0,-59 141,-59 141,-82"/>
<text text-anchor="middle" x="70.5" y="-66.8" font-family="Times,serif" font-size="14.00">RX / SCTP / DATA</text>
</g>
<!-- n10&#45;&gt;n11 -->
<g id="edge13" class="edge">
<title>n10&#45;&gt;n11</title>
<path fill="none" stroke="black" d="M122.46,-117.78C113.34,-109.66 100.63,-98.33 90.05,-88.92"/>
<polygon fill="black" stroke="black" points="92.28,-86.21 82.48,-82.17 87.62,-91.44 92.28,-86.21"/>
</g>
<!-- n11&#45;&gt;n11 -->
<g id="edge16" class="edge">
<title>n11&#45;&gt;n11</title>
<path fill="none" stroke="black" d="M141.33,-80.37C151.87,-78.83 159,-75.54 159,-70.5 159,-67.27 156.07,-64.76 151.2,-62.97"/>
<polygon fill="black" stroke="black" points="151.86,-59.53 141.33,-60.63 150.25,-66.34 151.86,-59.53"/>
</g>
<!-- n12 -->
<g id="node13" class="node">
<title>n12</title>
<polygon fill="none" stroke="black" points="258.5,-23 116.5,-23 116.5,0 258.5,0 258.5,-23"/>
<text text-anchor="middle" x="187.5" y="-7.8" font-family="Times,serif" font-size="14.00">TX / SCTP / SACK</text>
</g>
<!-- n11&#45;&gt;n12 -->
<g id="edge14" class="edge">
<title>n11&#45;&gt;n12</title>
<path fill="none" stroke="black" d="M87.1,-58.78C103.76,-49.9 129.65,-37.19 151.03,-27.34"/>
<polygon fill="black" stroke="black" points="152.54,-30.5 160.19,-23.17 149.64,-24.13 152.54,-30.5"/>
</g>
<!-- n12&#45;&gt;n9 -->
<g id="edge18" class="edge">
<title>n12&#45;&gt;n9</title>
<path fill="none" stroke="black" d="M258.71,-13.73C339.41,-16.7 464,-26.57 496.5,-59 513.84,-76.3 517.4,-124.69 505.5,-141 490.23,-161.93 465.41,-173.65 440.58,-180.14"/>
<polygon fill="black" stroke="black" points="439.65,-176.77 430.71,-182.46 441.25,-183.58 439.65,-176.77"/>
</g>
<!-- n12&#45;&gt;n10 -->
<g id="edge25" class="edge">
<title>n12&#45;&gt;n10</title>
<path fill="none" stroke="black" d="M185.58,-23.27C182.81,-37.28 176.98,-62.32 167.5,-82 162.83,-91.69 156.18,-101.54 150.07,-109.66"/>
<polygon fill="black" stroke="black" points="147.18,-107.67 143.77,-117.7 152.69,-111.99 147.18,-107.67"/>
</g>
<!-- n12&#45;&gt;n11 -->
<g id="edge15" class="edge">
<title>n12&#45;&gt;n11</title>
<path fill="none" stroke="black" d="M171.26,-23.03C154.58,-31.93 128.41,-44.78 106.85,-54.72"/>
<polygon fill="black" stroke="black" points="105.27,-51.59 97.62,-58.91 108.17,-57.96 105.27,-51.59"/>
</g>
<!-- n12&#45;&gt;n12 -->
<g id="edge17" class="edge">
<title>n12&#45;&gt;n12</title>
<path fill="none" stroke="black" d="M258.73,-21.37C269.33,-19.83 276.5,-16.54 276.5,-11.5 276.5,-8.27 273.56,-5.76 268.65,-3.97"/>
<polygon fill="black" stroke="black" points="269.26,-0.52 258.73,-1.63 267.66,-7.33 269.26,-0.52"/>
</g>
<!-- n13&#45;&gt;n12 -->
<g id="edge24" class="edge">
<title>n13&#45;&gt;n12</title>
<path fill="none" stroke="black" d="M320.39,-117.91C296.81,-110.41 267.25,-98.68 244.5,-82 225.84,-68.32 209.68,-47.18 199.38,-31.81"/>
<polygon fill="black" stroke="black" points="202.12,-29.6 193.75,-23.1 196.24,-33.4 202.12,-29.6"/>
</g>
<!-- n13&#45;&gt;n13 -->
<g id="edge23" class="edge">
<title>n13&#45;&gt;n13</title>
<path fill="none" stroke="black" d="M478.94,-138.14C489.72,-136.35 496.5,-133.46 496.5,-129.5 496.5,-126.96 493.72,-124.86 488.88,-123.21"/>
<polygon fill="black" stroke="black" points="489.48,-119.76 478.94,-120.86 487.87,-126.57 489.48,-119.76"/>
</g>
<!-- n14 -->
<g id="node15" class="node">
<title>n14</title>
<polygon fill="none" stroke="black" points="487.5,-82 253.5,-82 253.5,-59 487.5,-59 487.5,-82"/>
<text text-anchor="middle" x="370.5" y="-66.8" font-family="Times,serif" font-size="14.00">TX / E2AP / id&#45;RICsubscription</text>
</g>
<!-- n13&#45;&gt;n14 -->
<g id="edge21" class="edge">
<title>n13&#45;&gt;n14</title>
<path fill="none" stroke="black" d="M356.97,-117.78C356.97,-110.53 358.32,-100.74 360.39,-92.02"/>
<polygon fill="black" stroke="black" points="363.82,-92.75 363.22,-82.17 357.1,-90.82 363.82,-92.75"/>
</g>
<!-- n14&#45;&gt;n13 -->
<g id="edge22" class="edge">
<title>n14&#45;&gt;n13</title>
<path fill="none" stroke="black" d="M374.03,-82.17C374.04,-89.41 372.69,-99.2 370.62,-107.92"/>
<polygon fill="black" stroke="black" points="367.19,-107.2 367.79,-117.78 373.92,-109.13 367.19,-107.2"/>
</g>
</g>
</svg>
