<?xml version="1.0" encoding="UTF-8" standalone="no"?>
<!DOCTYPE svg PUBLIC "-//W3C//DTD SVG 1.1//EN"
 "http://www.w3.org/Graphics/SVG/1.1/DTD/svg11.dtd">
<!-- Generated by graphviz version 2.43.0 (0)
 -->
<!-- Title: %3 Pages: 1 -->
<svg width="1984pt" height="850pt"
 viewBox="0.00 0.00 1984.00 850.00" xmlns="http://www.w3.org/2000/svg" xmlns:xlink="http://www.w3.org/1999/xlink">
<g id="graph0" class="graph" transform="scale(1 1) rotate(0) translate(4 846)">
<title>%3</title>
<polygon fill="white" stroke="transparent" points="-4,4 -4,-846 1980,-846 1980,4 -4,4"/>
<!-- n0 -->
<g id="node1" class="node">
<title>n0</title>
<polygon fill="none" stroke="black" points="1307.5,-842 1253.5,-842 1253.5,-819 1307.5,-819 1307.5,-842"/>
<text text-anchor="middle" x="1280.5" y="-826.8" font-family="Times,serif" font-size="14.00">IDLE</text>
</g>
<!-- n1 -->
<g id="node2" class="node">
<title>n1</title>
<polygon fill="none" stroke="black" points="1496.5,-783 1302.5,-783 1302.5,-760 1496.5,-760 1496.5,-783"/>
<text text-anchor="middle" x="1399.5" y="-767.8" font-family="Times,serif" font-size="14.00">RX / SCTP / HEARTBEAT</text>
</g>
<!-- n0&#45;&gt;n1 -->
<g id="edge1" class="edge">
<title>n0&#45;&gt;n1</title>
<path fill="none" stroke="black" d="M1302.6,-818.91C1321.14,-810.03 1347.82,-797.26 1368.49,-787.35"/>
<polygon fill="black" stroke="black" points="1370.01,-790.51 1377.51,-783.03 1366.98,-784.19 1370.01,-790.51"/>
</g>
<!-- n3 -->
<g id="node4" class="node">
<title>n3</title>
<polygon fill="none" stroke="black" points="1228,-665 1095,-665 1095,-642 1228,-642 1228,-665"/>
<text text-anchor="middle" x="1161.5" y="-649.8" font-family="Times,serif" font-size="14.00">TX / SCTP / INIT</text>
</g>
<!-- n0&#45;&gt;n3 -->
<g id="edge42" class="edge">
<title>n0&#45;&gt;n3</title>
<path fill="none" stroke="black" d="M1273.24,-818.82C1253.6,-789.95 1199.3,-710.08 1174.34,-673.39"/>
<polygon fill="black" stroke="black" points="1177.19,-671.34 1168.67,-665.04 1171.4,-675.28 1177.19,-671.34"/>
</g>
<!-- n2 -->
<g id="node3" class="node">
<title>n2</title>
<polygon fill="none" stroke="black" points="1514.5,-724 1284.5,-724 1284.5,-701 1514.5,-701 1514.5,-724"/>
<text text-anchor="middle" x="1399.5" y="-708.8" font-family="Times,serif" font-size="14.00">TX / SCTP / HEARTBEAT_ACK</text>
</g>
<!-- n1&#45;&gt;n2 -->
<g id="edge2" class="edge">
<title>n1&#45;&gt;n2</title>
<path fill="none" stroke="black" d="M1394.09,-759.78C1392.83,-752.61 1392.46,-742.95 1392.97,-734.31"/>
<polygon fill="black" stroke="black" points="1396.47,-734.5 1394.1,-724.17 1389.52,-733.73 1396.47,-734.5"/>
</g>
<!-- n16 -->
<g id="node17" class="node">
<title>n16</title>
<polygon fill="#e60a0a" fill-opacity="0.250980" stroke="black" points="1976,-29.5 1703,-29.5 1703,-6.5 1976,-6.5 1976,-29.5"/>
<text text-anchor="start" x="1711" y="-15.3" font-family="Times,serif" font-weight="bold" font-size="14.00" fill="firebrick">(&#45;) RX / SCTP / HEARTBEAT_ACK</text>
</g>
<!-- n1&#45;&gt;n16 -->
<g id="edge39" class="edge">
<title>n1&#45;&gt;n16</title>
<path fill="none" stroke="firebrick" stroke-width="2" d="M1496.56,-763.87C1623.71,-752.61 1830.5,-723.82 1830.5,-654.5 1830.5,-654.5 1830.5,-654.5 1830.5,-161 1830.5,-117.88 1830.5,-67.4 1833.37,-39.74"/>
<polygon fill="firebrick" stroke="firebrick" stroke-width="2" points="1836.86,-40.07 1834.73,-29.69 1829.92,-39.13 1836.86,-40.07"/>
</g>
<!-- n2&#45;&gt;n1 -->
<g id="edge38" class="edge">
<title>n2&#45;&gt;n1</title>
<path fill="none" stroke="black" d="M1404.9,-724.17C1406.16,-731.33 1406.54,-740.99 1406.03,-749.63"/>
<polygon fill="black" stroke="black" points="1402.53,-749.46 1404.91,-759.78 1409.49,-750.22 1402.53,-749.46"/>
</g>
<!-- n2&#45;&gt;n3 -->
<g id="edge3" class="edge">
<title>n2&#45;&gt;n3</title>
<path fill="none" stroke="black" d="M1355.57,-700.98C1316.03,-691.51 1257.8,-677.56 1215.44,-667.42"/>
<polygon fill="black" stroke="black" points="1216.12,-663.98 1205.58,-665.06 1214.49,-670.79 1216.12,-663.98"/>
</g>
<!-- n13 -->
<g id="node14" class="node">
<title>n13</title>
<polygon fill="#e60a0a" fill-opacity="0.250980" stroke="black" points="1514.5,-101.5 1252.5,-101.5 1252.5,-78.5 1514.5,-78.5 1514.5,-101.5"/>
<text text-anchor="start" x="1260.5" y="-87.3" font-family="Times,serif" font-weight="bold" font-size="14.00" fill="firebrick">(&#45;) TX / E2AP / id&#45;RICindication</text>
</g>
<!-- n2&#45;&gt;n13 -->
<g id="edge23" class="edge">
<title>n2&#45;&gt;n13</title>
<path fill="none" stroke="firebrick" stroke-width="2" d="M1398.28,-700.96C1396.05,-680.61 1391.5,-634.46 1391.5,-595.5 1391.5,-595.5 1391.5,-595.5 1391.5,-226.5 1391.5,-185.67 1387.84,-138.05 1385.47,-111.52"/>
<polygon fill="firebrick" stroke="firebrick" stroke-width="2" points="1388.95,-111.17 1384.55,-101.53 1381.98,-111.81 1388.95,-111.17"/>
</g>
<!-- n15 -->
<g id="node16" class="node">
<title>n15</title>
<polygon fill="#e60a0a" fill-opacity="0.250980" stroke="black" points="1802,-101.5 1571,-101.5 1571,-78.5 1802,-78.5 1802,-101.5"/>
<text text-anchor="start" x="1579" y="-87.3" font-family="Times,serif" font-weight="bold" font-size="14.00" fill="firebrick">(&#45;) TX / SCTP / HEARTBEAT</text>
</g>
<!-- n2&#45;&gt;n15 -->
<g id="edge41" class="edge">
<title>n2&#45;&gt;n15</title>
<path fill="none" stroke="firebrick" stroke-width="2" d="M1411.04,-700.89C1430.44,-681.82 1467.5,-639.62 1467.5,-595.5 1467.5,-595.5 1467.5,-595.5 1467.5,-226.5 1467.5,-155.41 1551.97,-120.36 1615.99,-104"/>
<polygon fill="firebrick" stroke="firebrick" stroke-width="2" points="1617.2,-107.31 1626.08,-101.53 1615.53,-100.51 1617.2,-107.31"/>
</g>
<!-- n4 -->
<g id="node5" class="node">
<title>n4</title>
<polygon fill="none" stroke="black" points="1187.5,-606 1015.5,-606 1015.5,-583 1187.5,-583 1187.5,-606"/>
<text text-anchor="middle" x="1101.5" y="-590.8" font-family="Times,serif" font-size="14.00">RX / SCTP / INIT_ACK</text>
</g>
<!-- n3&#45;&gt;n4 -->
<g id="edge4" class="edge">
<title>n3&#45;&gt;n4</title>
<path fill="none" stroke="black" d="M1150.21,-641.78C1141.75,-633.74 1129.98,-622.55 1120.12,-613.19"/>
<polygon fill="black" stroke="black" points="1122.4,-610.52 1112.73,-606.17 1117.57,-615.6 1122.4,-610.52"/>
</g>
<!-- n5 -->
<g id="node6" class="node">
<title>n5</title>
<polygon fill="none" stroke="black" points="914.5,-540.5 702.5,-540.5 702.5,-517.5 914.5,-517.5 914.5,-540.5"/>
<text text-anchor="middle" x="808.5" y="-525.3" font-family="Times,serif" font-size="14.00">TX / SCTP / COOKIE_ECHO</text>
</g>
<!-- n4&#45;&gt;n5 -->
<g id="edge5" class="edge">
<title>n4&#45;&gt;n5</title>
<path fill="none" stroke="black" d="M1052.79,-582.94C1001.78,-571.89 921.65,-554.52 867.19,-542.72"/>
<polygon fill="black" stroke="black" points="867.84,-539.28 857.33,-540.58 866.36,-546.12 867.84,-539.28"/>
</g>
<!-- n23 -->
<g id="node24" class="node">
<title>n23</title>
<polygon fill="#5bae32" fill-opacity="0.250980" stroke="black" points="1190.5,-547 932.5,-547 932.5,-511 1190.5,-511 1190.5,-547"/>
<text text-anchor="start" x="940.5" y="-526.3" font-family="Times,serif" font-weight="bold" font-size="14.00" fill="darkgreen">(+) RX / SCTP / COOKIE_ECHO</text>
</g>
<!-- n4&#45;&gt;n23 -->
<g id="edge50" class="edge">
<title>n4&#45;&gt;n23</title>
<path fill="none" stroke="darkgreen" stroke-width="2" d="M1094.71,-582.73C1090.05,-575.33 1083.66,-565.17 1077.72,-555.75"/>
<polygon fill="darkgreen" stroke="darkgreen" stroke-width="2" points="1080.54,-553.65 1072.24,-547.06 1074.61,-557.38 1080.54,-553.65"/>
</g>
<!-- n6 -->
<g id="node7" class="node">
<title>n6</title>
<polygon fill="none" stroke="black" points="950.5,-475 750.5,-475 750.5,-452 950.5,-452 950.5,-475"/>
<text text-anchor="middle" x="850.5" y="-459.8" font-family="Times,serif" font-size="14.00">RX / SCTP / COOKIE_ACK</text>
</g>
<!-- n5&#45;&gt;n6 -->
<g id="edge6" class="edge">
<title>n5&#45;&gt;n6</title>
<path fill="none" stroke="black" d="M815.62,-517.23C821.7,-508.05 830.57,-494.64 837.84,-483.64"/>
<polygon fill="black" stroke="black" points="840.88,-485.38 843.48,-475.11 835.04,-481.52 840.88,-485.38"/>
</g>
<!-- n7 -->
<g id="node8" class="node">
<title>n7</title>
<polygon fill="none" stroke="black" points="921,-416 780,-416 780,-393 921,-393 921,-416"/>
<text text-anchor="middle" x="850.5" y="-400.8" font-family="Times,serif" font-size="14.00">RX / SCTP / DATA</text>
</g>
<!-- n6&#45;&gt;n7 -->
<g id="edge7" class="edge">
<title>n6&#45;&gt;n7</title>
<path fill="none" stroke="black" d="M850.5,-451.78C850.5,-444.61 850.5,-434.95 850.5,-426.31"/>
<polygon fill="black" stroke="black" points="854,-426.17 850.5,-416.17 847,-426.17 854,-426.17"/>
</g>
<!-- n9 -->
<g id="node10" class="node">
<title>n9</title>
<polygon fill="none" stroke="black" points="1027.5,-298 887.5,-298 887.5,-275 1027.5,-275 1027.5,-298"/>
<text text-anchor="middle" x="957.5" y="-282.8" font-family="Times,serif" font-size="14.00">TX / SCTP / DATA</text>
</g>
<!-- n6&#45;&gt;n9 -->
<g id="edge47" class="edge">
<title>n6&#45;&gt;n9</title>
<path fill="none" stroke="black" d="M878.91,-451.88C895.78,-444.25 916.37,-432.4 929.5,-416 954.59,-384.67 958.42,-335.78 958.36,-308.22"/>
<polygon fill="black" stroke="black" points="961.86,-308.07 958.16,-298.14 954.86,-308.21 961.86,-308.07"/>
</g>
<!-- n22 -->
<g id="node23" class="node">
<title>n22</title>
<polygon fill="#5bae32" fill-opacity="0.250980" stroke="black" points="1040,-108 717,-108 717,-72 1040,-72 1040,-108"/>
<text text-anchor="start" x="725" y="-87.3" font-family="Times,serif" font-weight="bold" font-size="14.00" fill="darkgreen">(+) RX / E1AP / id&#45;gNB&#45;CU&#45;UP&#45;E1Setup</text>
</g>
<!-- n6&#45;&gt;n22 -->
<g id="edge46" class="edge">
<title>n6&#45;&gt;n22</title>
<path fill="none" stroke="darkgreen" stroke-width="2" d="M750.34,-456.97C548.83,-444.51 113.5,-410.21 113.5,-346.5 113.5,-346.5 113.5,-346.5 113.5,-285.5 113.5,-209.75 143.12,-182.24 208.5,-144 250.53,-119.42 522.63,-104.36 706.88,-96.86"/>
<polygon fill="darkgreen" stroke="darkgreen" stroke-width="2" points="707.11,-100.35 716.96,-96.45 706.82,-93.35 707.11,-100.35"/>
</g>
<!-- n8 -->
<g id="node9" class="node">
<title>n8</title>
<polygon fill="none" stroke="black" points="921.5,-357 779.5,-357 779.5,-334 921.5,-334 921.5,-357"/>
<text text-anchor="middle" x="850.5" y="-341.8" font-family="Times,serif" font-size="14.00">TX / SCTP / SACK</text>
</g>
<!-- n7&#45;&gt;n8 -->
<g id="edge8" class="edge">
<title>n7&#45;&gt;n8</title>
<path fill="none" stroke="black" d="M845.09,-392.78C843.83,-385.61 843.46,-375.95 843.97,-367.31"/>
<polygon fill="black" stroke="black" points="847.47,-367.5 845.1,-357.17 840.52,-366.73 847.47,-367.5"/>
</g>
<!-- n8&#45;&gt;n7 -->
<g id="edge9" class="edge">
<title>n8&#45;&gt;n7</title>
<path fill="none" stroke="black" d="M855.9,-357.17C857.16,-364.33 857.54,-373.99 857.03,-382.63"/>
<polygon fill="black" stroke="black" points="853.53,-382.46 855.91,-392.78 860.49,-383.22 853.53,-382.46"/>
</g>
<!-- n8&#45;&gt;n8 -->
<g id="edge59" class="edge">
<title>n8&#45;&gt;n8</title>
<path fill="none" stroke="black" d="M921.73,-355.37C932.33,-353.83 939.5,-350.54 939.5,-345.5 939.5,-342.27 936.56,-339.76 931.65,-337.97"/>
<polygon fill="black" stroke="black" points="932.26,-334.52 921.73,-335.63 930.66,-341.33 932.26,-334.52"/>
</g>
<!-- n8&#45;&gt;n9 -->
<g id="edge10" class="edge">
<title>n8&#45;&gt;n9</title>
<path fill="none" stroke="black" d="M870.38,-333.91C886.82,-325.15 910.38,-312.6 928.86,-302.76"/>
<polygon fill="black" stroke="black" points="930.55,-305.82 937.73,-298.03 927.26,-299.64 930.55,-305.82"/>
</g>
<!-- n10 -->
<g id="node11" class="node">
<title>n10</title>
<polygon fill="none" stroke="black" points="688.5,-239 452.5,-239 452.5,-216 688.5,-216 688.5,-239"/>
<text text-anchor="middle" x="570.5" y="-223.8" font-family="Times,serif" font-size="14.00">RX / E2AP / id&#45;RICsubscription</text>
</g>
<!-- n8&#45;&gt;n10 -->
<g id="edge15" class="edge">
<title>n8&#45;&gt;n10</title>
<path fill="none" stroke="black" d="M820.81,-333.9C767.28,-313.1 655.61,-266.92 601.29,-243.19"/>
<polygon fill="black" stroke="black" points="602.41,-239.86 591.84,-239.04 599.59,-246.27 602.41,-239.86"/>
</g>
<!-- n12 -->
<g id="node13" class="node">
<title>n12</title>
<polygon fill="none" stroke="black" points="1219,-173.5 1076,-173.5 1076,-150.5 1219,-150.5 1219,-173.5"/>
<text text-anchor="middle" x="1147.5" y="-158.3" font-family="Times,serif" font-size="14.00">RX / SCTP / SACK</text>
</g>
<!-- n8&#45;&gt;n12 -->
<g id="edge16" class="edge">
<title>n8&#45;&gt;n12</title>
<path fill="none" stroke="black" d="M921.82,-339.76C960.96,-334.2 1008.78,-322.49 1045.5,-298 1088.69,-269.2 1117.54,-212.92 1133.82,-182.93"/>
<polygon fill="black" stroke="black" points="1137.07,-184.28 1138.86,-173.84 1130.95,-180.89 1137.07,-184.28"/>
</g>
<!-- n17 -->
<g id="node18" class="node">
<title>n17</title>
<polygon fill="#e60a0a" fill-opacity="0.250980" stroke="black" points="1058.5,-239 724.5,-239 724.5,-216 1058.5,-216 1058.5,-239"/>
<text text-anchor="start" x="732.5" y="-224.8" font-family="Times,serif" font-weight="bold" font-size="14.00" fill="firebrick">(&#45;) RX / E2AP / id&#45;RICsubscriptionDelete</text>
</g>
<!-- n8&#45;&gt;n17 -->
<g id="edge31" class="edge">
<title>n8&#45;&gt;n17</title>
<path fill="none" stroke="firebrick" stroke-width="2" d="M850.17,-333.79C853.94,-314.37 868.17,-273.06 879.25,-248.35"/>
<polygon fill="firebrick" stroke="firebrick" stroke-width="2" points="882.48,-249.71 883.62,-239.18 876.16,-246.7 882.48,-249.71"/>
</g>
<!-- n19 -->
<g id="node20" class="node">
<title>n19</title>
<polygon fill="#e60a0a" fill-opacity="0.250980" stroke="black" points="497.5,-298 267.5,-298 267.5,-275 497.5,-275 497.5,-298"/>
<text text-anchor="start" x="275.5" y="-283.8" font-family="Times,serif" font-weight="bold" font-size="14.00" fill="firebrick">(&#45;) TX / SCTP / SHUTDOWN</text>
</g>
<!-- n8&#45;&gt;n19 -->
<g id="edge34" class="edge">
<title>n8&#45;&gt;n19</title>
<path fill="none" stroke="firebrick" stroke-width="2" d="M779.42,-335.84C699.28,-326.08 568.52,-310.16 479.14,-299.27"/>
<polygon fill="firebrick" stroke="firebrick" stroke-width="2" points="479.35,-295.77 469,-298.03 478.5,-302.72 479.35,-295.77"/>
</g>
<!-- n9&#45;&gt;n9 -->
<g id="edge58" class="edge">
<title>n9&#45;&gt;n9</title>
<path fill="none" stroke="black" d="M1027.57,-296.42C1038.25,-294.9 1045.5,-291.6 1045.5,-286.5 1045.5,-283.23 1042.52,-280.7 1037.58,-278.91"/>
<polygon fill="black" stroke="black" points="1038.1,-275.44 1027.57,-276.58 1036.52,-282.26 1038.1,-275.44"/>
</g>
<!-- n9&#45;&gt;n10 -->
<g id="edge11" class="edge">
<title>n9&#45;&gt;n10</title>
<path fill="none" stroke="black" d="M887.42,-275.18C821.19,-265.42 721.86,-250.79 652.1,-240.52"/>
<polygon fill="black" stroke="black" points="652.43,-237.03 642.03,-239.03 651.41,-243.95 652.43,-237.03"/>
</g>
<!-- n9&#45;&gt;n12 -->
<g id="edge57" class="edge">
<title>n9&#45;&gt;n12</title>
<path fill="none" stroke="black" d="M990.81,-274.96C1013.47,-266.96 1043.56,-254.68 1067.5,-239 1092.57,-222.58 1116.86,-197.86 1131.98,-181.1"/>
<polygon fill="black" stroke="black" points="1134.62,-183.4 1138.62,-173.59 1129.38,-178.76 1134.62,-183.4"/>
</g>
<!-- n9&#45;&gt;n17 -->
<g id="edge27" class="edge">
<title>n9&#45;&gt;n17</title>
<path fill="none" stroke="firebrick" stroke-width="2" d="M945.09,-274.78C935.68,-266.66 922.57,-255.33 911.67,-245.92"/>
<polygon fill="firebrick" stroke="firebrick" stroke-width="2" points="913.71,-243.06 903.86,-239.17 909.14,-248.36 913.71,-243.06"/>
</g>
<!-- n10&#45;&gt;n8 -->
<g id="edge14" class="edge">
<title>n10&#45;&gt;n8</title>
<path fill="none" stroke="black" d="M599.96,-239.01C653.37,-259.75 765.19,-306 819.61,-329.77"/>
<polygon fill="black" stroke="black" points="818.21,-332.97 828.77,-333.79 821.03,-326.56 818.21,-332.97"/>
</g>
<!-- n10&#45;&gt;n10 -->
<g id="edge44" class="edge">
<title>n10&#45;&gt;n10</title>
<path fill="none" stroke="black" d="M688.94,-236.14C699.72,-234.35 706.5,-231.46 706.5,-227.5 706.5,-224.96 703.72,-222.86 698.88,-221.21"/>
<polygon fill="black" stroke="black" points="699.48,-217.76 688.94,-218.86 697.87,-224.57 699.48,-217.76"/>
</g>
<!-- n11 -->
<g id="node12" class="node">
<title>n11</title>
<polygon fill="none" stroke="black" points="707.5,-173.5 473.5,-173.5 473.5,-150.5 707.5,-150.5 707.5,-173.5"/>
<text text-anchor="middle" x="590.5" y="-158.3" font-family="Times,serif" font-size="14.00">TX / E2AP / id&#45;RICsubscription</text>
</g>
<!-- n10&#45;&gt;n11 -->
<g id="edge12" class="edge">
<title>n10&#45;&gt;n11</title>
<path fill="none" stroke="black" d="M568.68,-215.73C569.94,-206.73 573.69,-193.67 577.96,-182.8"/>
<polygon fill="black" stroke="black" points="581.18,-184.18 581.97,-173.61 574.76,-181.38 581.18,-184.18"/>
</g>
<!-- n25 -->
<g id="node26" class="node">
<title>n25</title>
<polygon fill="#5bae32" fill-opacity="0.250980" stroke="black" points="455.5,-180 217.5,-180 217.5,-144 455.5,-144 455.5,-180"/>
<text text-anchor="start" x="225.5" y="-159.3" font-family="Times,serif" font-weight="bold" font-size="14.00" fill="darkgreen">(+) RX / SCTP / SHUTDOWN</text>
</g>
<!-- n10&#45;&gt;n25 -->
<g id="edge45" class="edge">
<title>n10&#45;&gt;n25</title>
<path fill="none" stroke="darkgreen" stroke-width="2" d="M531.6,-215.94C498.34,-206.92 449.59,-193.69 409.14,-182.71"/>
<polygon fill="darkgreen" stroke="darkgreen" stroke-width="2" points="409.89,-179.29 399.32,-180.05 408.06,-186.04 409.89,-179.29"/>
</g>
<!-- n11&#45;&gt;n10 -->
<g id="edge13" class="edge">
<title>n11&#45;&gt;n10</title>
<path fill="none" stroke="black" d="M592.35,-173.61C591.12,-182.56 587.38,-195.61 583.12,-206.5"/>
<polygon fill="black" stroke="black" points="579.89,-205.16 579.11,-215.73 586.31,-207.95 579.89,-205.16"/>
</g>
<!-- n12&#45;&gt;n1 -->
<g id="edge22" class="edge">
<title>n12&#45;&gt;n1</title>
<path fill="none" stroke="black" d="M1159.58,-173.52C1187.96,-199.48 1256.5,-269.89 1256.5,-344.5 1256.5,-654.5 1256.5,-654.5 1256.5,-654.5 1256.5,-686.52 1253.92,-700.34 1275.5,-724 1289.68,-739.55 1309.57,-749.92 1329.28,-756.83"/>
<polygon fill="black" stroke="black" points="1328.32,-760.2 1338.91,-759.96 1330.47,-753.54 1328.32,-760.2"/>
</g>
<!-- n12&#45;&gt;n7 -->
<g id="edge52" class="edge">
<title>n12&#45;&gt;n7</title>
<path fill="none" stroke="black" d="M1148.24,-173.54C1148.89,-188.65 1148.61,-217.07 1139.5,-239 1126.53,-270.22 1118.41,-277.54 1091.5,-298 1032.03,-343.23 950.15,-373.74 898.79,-389.87"/>
<polygon fill="black" stroke="black" points="897.46,-386.61 888.94,-392.9 899.52,-393.3 897.46,-386.61"/>
</g>
<!-- n12&#45;&gt;n8 -->
<g id="edge33" class="edge">
<title>n12&#45;&gt;n8</title>
<path fill="none" stroke="black" d="M1147.89,-173.84C1141.88,-199.84 1111.57,-265.95 1063.5,-298 1024.89,-323.75 974.01,-335.38 931.6,-340.57"/>
<polygon fill="black" stroke="black" points="931.12,-337.1 921.58,-341.7 931.91,-344.06 931.12,-337.1"/>
</g>
<!-- n12&#45;&gt;n12 -->
<g id="edge17" class="edge">
<title>n12&#45;&gt;n12</title>
<path fill="none" stroke="black" d="M1191.71,-173.5C1215.41,-175.46 1237,-171.62 1237,-162 1237,-153.77 1221.2,-149.77 1201.79,-150.01"/>
<polygon fill="black" stroke="black" points="1201.53,-146.52 1191.71,-150.5 1201.86,-153.51 1201.53,-146.52"/>
</g>
<!-- n12&#45;&gt;n13 -->
<g id="edge18" class="edge">
<title>n12&#45;&gt;n13</title>
<path fill="none" stroke="firebrick" stroke-width="2" d="M1183.09,-150.44C1224.51,-138.16 1292.99,-117.85 1338.18,-104.44"/>
<polygon fill="firebrick" stroke="firebrick" stroke-width="2" points="1339.42,-107.73 1348.01,-101.53 1337.43,-101.01 1339.42,-107.73"/>
</g>
<!-- n12&#45;&gt;n15 -->
<g id="edge24" class="edge">
<title>n12&#45;&gt;n15</title>
<path fill="none" stroke="firebrick" stroke-width="2" d="M1219.08,-151.7C1316.03,-139.11 1489.16,-116.63 1595.32,-102.84"/>
<polygon fill="firebrick" stroke="firebrick" stroke-width="2" points="1595.91,-106.29 1605.38,-101.54 1595.01,-99.35 1595.91,-106.29"/>
</g>
<!-- n12&#45;&gt;n22 -->
<g id="edge51" class="edge">
<title>n12&#45;&gt;n22</title>
<path fill="none" stroke="darkgreen" stroke-width="2" d="M1101.94,-150.44C1059.71,-139.94 996.41,-123.57 947.92,-110.66"/>
<polygon fill="darkgreen" stroke="darkgreen" stroke-width="2" points="948.68,-107.24 938.12,-108.05 946.88,-114.01 948.68,-107.24"/>
</g>
<!-- n24 -->
<g id="node25" class="node">
<title>n24</title>
<polygon fill="#5bae32" fill-opacity="0.250980" stroke="black" points="1234.5,-108 1058.5,-108 1058.5,-72 1234.5,-72 1234.5,-108"/>
<text text-anchor="start" x="1066.5" y="-87.3" font-family="Times,serif" font-weight="bold" font-size="14.00" fill="darkgreen">(+) RX / SCTP / INIT</text>
</g>
<!-- n12&#45;&gt;n24 -->
<g id="edge53" class="edge">
<title>n12&#45;&gt;n24</title>
<path fill="none" stroke="darkgreen" stroke-width="2" d="M1147.35,-150.37C1147.23,-141.85 1147.05,-129.5 1146.89,-118.27"/>
<polygon fill="darkgreen" stroke="darkgreen" stroke-width="2" points="1150.39,-117.96 1146.74,-108.01 1143.39,-118.06 1150.39,-117.96"/>
</g>
<!-- n14 -->
<g id="node15" class="node">
<title>n14</title>
<polygon fill="#e60a0a" fill-opacity="0.250980" stroke="black" points="1338,-29.5 1075,-29.5 1075,-6.5 1338,-6.5 1338,-29.5"/>
<text text-anchor="start" x="1083" y="-15.3" font-family="Times,serif" font-weight="bold" font-size="14.00" fill="firebrick">(&#45;) RX / E2AP / id&#45;RICindication</text>
</g>
<!-- n13&#45;&gt;n14 -->
<g id="edge19" class="edge">
<title>n13&#45;&gt;n14</title>
<path fill="none" stroke="firebrick" stroke-width="2" d="M1351.61,-78.37C1319.17,-66.38 1269.5,-46.81 1237.42,-33.44"/>
<polygon fill="firebrick" stroke="firebrick" stroke-width="2" points="1238.64,-30.15 1228.07,-29.5 1235.93,-36.61 1238.64,-30.15"/>
</g>
<!-- n14&#45;&gt;n8 -->
<g id="edge21" class="edge">
<title>n14&#45;&gt;n8</title>
<path fill="none" stroke="firebrick" stroke-width="2" d="M1074.76,-20.98C803.03,-25.72 203.09,-39.8 172.5,-72 98.48,-149.91 169.36,-237.96 258.5,-298 299.85,-325.85 616.69,-338.16 769.1,-342.52"/>
<polygon fill="firebrick" stroke="firebrick" stroke-width="2" points="769.25,-346.02 779.34,-342.8 769.45,-339.02 769.25,-346.02"/>
</g>
<!-- n14&#45;&gt;n13 -->
<g id="edge20" class="edge">
<title>n14&#45;&gt;n13</title>
<path fill="none" stroke="firebrick" stroke-width="2" d="M1238.04,-29.5C1270.35,-41.44 1320.03,-61.01 1352.23,-74.42"/>
<polygon fill="firebrick" stroke="firebrick" stroke-width="2" points="1351.05,-77.72 1361.63,-78.37 1353.77,-71.27 1351.05,-77.72"/>
</g>
<!-- n15&#45;&gt;n16 -->
<g id="edge25" class="edge">
<title>n15&#45;&gt;n16</title>
<path fill="none" stroke="firebrick" stroke-width="2" d="M1704.73,-78.37C1728.83,-66.38 1771.41,-46.81 1802.36,-33.44"/>
<polygon fill="firebrick" stroke="firebrick" stroke-width="2" points="1803.74,-36.65 1811.56,-29.5 1800.99,-30.22 1803.74,-36.65"/>
</g>
<!-- n16&#45;&gt;n1 -->
<g id="edge26" class="edge">
<title>n16&#45;&gt;n1</title>
<path fill="none" stroke="firebrick" stroke-width="2" d="M1844.27,-29.69C1848.5,-53.35 1848.5,-111.94 1848.5,-161 1848.5,-654.5 1848.5,-654.5 1848.5,-654.5 1848.5,-724.13 1639.86,-752.87 1506.99,-764.02"/>
<polygon fill="firebrick" stroke="firebrick" stroke-width="2" points="1506.44,-760.55 1496.76,-764.85 1507.01,-767.53 1506.44,-760.55"/>
</g>
<!-- n16&#45;&gt;n15 -->
<g id="edge40" class="edge">
<title>n16&#45;&gt;n15</title>
<path fill="none" stroke="firebrick" stroke-width="2" d="M1821.53,-29.5C1797.56,-41.44 1755,-61.01 1723.97,-74.42"/>
<polygon fill="firebrick" stroke="firebrick" stroke-width="2" points="1722.56,-71.22 1714.75,-78.37 1725.32,-77.65 1722.56,-71.22"/>
</g>
<!-- n17&#45;&gt;n8 -->
<g id="edge30" class="edge">
<title>n17&#45;&gt;n8</title>
<path fill="none" stroke="firebrick" stroke-width="2" d="M891.83,-239.18C888.07,-258.58 873.84,-299.9 862.76,-324.62"/>
<polygon fill="firebrick" stroke="firebrick" stroke-width="2" points="859.53,-323.26 858.4,-333.79 865.85,-326.27 859.53,-323.26"/>
</g>
<!-- n17&#45;&gt;n12 -->
<g id="edge32" class="edge">
<title>n17&#45;&gt;n12</title>
<path fill="none" stroke="firebrick" stroke-width="2" d="M934.06,-215.94C978.26,-204.98 1047.48,-187.81 1095.04,-176.01"/>
<polygon fill="firebrick" stroke="firebrick" stroke-width="2" points="1095.97,-179.39 1104.84,-173.58 1094.29,-172.59 1095.97,-179.39"/>
</g>
<!-- n18 -->
<g id="node19" class="node">
<title>n18</title>
<polygon fill="#e60a0a" fill-opacity="0.250980" stroke="black" points="1057.5,-173.5 725.5,-173.5 725.5,-150.5 1057.5,-150.5 1057.5,-173.5"/>
<text text-anchor="start" x="733.5" y="-159.3" font-family="Times,serif" font-weight="bold" font-size="14.00" fill="firebrick">(&#45;) TX / E2AP / id&#45;RICsubscriptionDelete</text>
</g>
<!-- n17&#45;&gt;n18 -->
<g id="edge28" class="edge">
<title>n17&#45;&gt;n18</title>
<path fill="none" stroke="firebrick" stroke-width="2" d="M886.28,-215.73C884.76,-207.01 884.37,-194.47 885.12,-183.81"/>
<polygon fill="firebrick" stroke="firebrick" stroke-width="2" points="888.63,-183.95 886.31,-173.61 881.67,-183.14 888.63,-183.95"/>
</g>
<!-- n18&#45;&gt;n17 -->
<g id="edge29" class="edge">
<title>n18&#45;&gt;n17</title>
<path fill="none" stroke="firebrick" stroke-width="2" d="M896.69,-173.61C898.23,-182.28 898.63,-194.81 897.89,-205.5"/>
<polygon fill="firebrick" stroke="firebrick" stroke-width="2" points="894.38,-205.39 896.72,-215.73 901.34,-206.19 894.38,-205.39"/>
</g>
<!-- n20 -->
<g id="node21" class="node">
<title>n20</title>
<polygon fill="none" stroke="black" points="413.5,-101.5 181.5,-101.5 181.5,-78.5 413.5,-78.5 413.5,-101.5"/>
<text text-anchor="middle" x="297.5" y="-86.3" font-family="Times,serif" font-size="14.00">RX / SCTP / SHUTDOWN_ACK</text>
</g>
<!-- n19&#45;&gt;n20 -->
<g id="edge35" class="edge">
<title>n19&#45;&gt;n20</title>
<path fill="none" stroke="firebrick" stroke-width="2" d="M344.9,-274.88C303.07,-260.81 237.54,-231.56 208.5,-180 200.65,-166.06 200.59,-157.91 208.5,-144 218.47,-126.45 236.8,-114.11 254.25,-105.77"/>
<polygon fill="firebrick" stroke="firebrick" stroke-width="2" points="256.06,-108.8 263.79,-101.55 253.23,-102.4 256.06,-108.8"/>
</g>
<!-- n21 -->
<g id="node22" class="node">
<title>n21</title>
<polygon fill="#e60a0a" fill-opacity="0.250980" stroke="black" points="1684.5,-29.5 1356.5,-29.5 1356.5,-6.5 1684.5,-6.5 1684.5,-29.5"/>
<text text-anchor="start" x="1364.5" y="-15.3" font-family="Times,serif" font-weight="bold" font-size="14.00" fill="firebrick">(&#45;) TX / SCTP / SHUTDOWN_COMPLETE</text>
</g>
<!-- n20&#45;&gt;n21 -->
<g id="edge36" class="edge">
<title>n20&#45;&gt;n21</title>
<path fill="none" stroke="firebrick" stroke-width="2" d="M413.54,-83.83C647.39,-73.29 1168.17,-49.21 1346.5,-36 1367.4,-34.45 1389.69,-32.5 1411.1,-30.48"/>
<polygon fill="firebrick" stroke="firebrick" stroke-width="2" points="1411.57,-33.95 1421.19,-29.51 1410.91,-26.98 1411.57,-33.95"/>
</g>
<!-- n26 -->
<g id="node27" class="node">
<title>n26</title>
<polygon fill="#5bae32" fill-opacity="0.250980" stroke="black" points="335,-36 0,-36 0,0 335,0 335,-36"/>
<text text-anchor="start" x="8" y="-15.3" font-family="Times,serif" font-weight="bold" font-size="14.00" fill="darkgreen">(+) RX / SCTP / SHUTDOWN_COMPLETE</text>
</g>
<!-- n20&#45;&gt;n26 -->
<g id="edge55" class="edge">
<title>n20&#45;&gt;n26</title>
<path fill="none" stroke="darkgreen" stroke-width="2" d="M277.76,-78.37C259.32,-68.44 231.24,-53.32 208.04,-40.83"/>
<polygon fill="darkgreen" stroke="darkgreen" stroke-width="2" points="209.55,-37.67 199.09,-36.01 206.23,-43.83 209.55,-37.67"/>
</g>
<!-- n21&#45;&gt;n1 -->
<g id="edge37" class="edge">
<title>n21&#45;&gt;n1</title>
<path fill="none" stroke="firebrick" stroke-width="2" d="M1523.29,-29.6C1529.21,-53.09 1542.5,-111.36 1542.5,-161 1542.5,-654.5 1542.5,-654.5 1542.5,-654.5 1542.5,-686.52 1545.08,-700.34 1523.5,-724 1509.32,-739.55 1489.43,-749.92 1469.72,-756.83"/>
<polygon fill="firebrick" stroke="firebrick" stroke-width="2" points="1468.53,-753.54 1460.09,-759.96 1470.68,-760.2 1468.53,-753.54"/>
</g>
<!-- n22&#45;&gt;n12 -->
<g id="edge43" class="edge">
<title>n22&#45;&gt;n12</title>
<path fill="none" stroke="darkgreen" stroke-width="2" d="M949.89,-108.05C998.17,-120.27 1060.41,-136.51 1102.07,-147.77"/>
<polygon fill="darkgreen" stroke="darkgreen" stroke-width="2" points="1101.36,-151.2 1111.93,-150.44 1103.2,-144.45 1101.36,-151.2"/>
</g>
<!-- n23&#45;&gt;n6 -->
<g id="edge48" class="edge">
<title>n23&#45;&gt;n6</title>
<path fill="none" stroke="darkgreen" stroke-width="2" d="M1004.96,-510.98C970.7,-500.67 927.59,-487.7 895.63,-478.08"/>
<polygon fill="darkgreen" stroke="darkgreen" stroke-width="2" points="896.25,-474.61 885.67,-475.08 894.24,-481.32 896.25,-474.61"/>
</g>
<!-- n24&#45;&gt;n4 -->
<g id="edge49" class="edge">
<title>n24&#45;&gt;n4</title>
<path fill="none" stroke="darkgreen" stroke-width="2" d="M1202.13,-108.04C1219.05,-116.12 1235.73,-127.69 1245.5,-144 1291.7,-221.14 1218.5,-254.58 1218.5,-344.5 1218.5,-464.5 1218.5,-464.5 1218.5,-464.5 1218.5,-502.13 1223.07,-517.67 1199.5,-547 1187.55,-561.86 1169.73,-572.24 1152.54,-579.36"/>
<polygon fill="darkgreen" stroke="darkgreen" stroke-width="2" points="1151.18,-576.13 1143.1,-582.99 1153.69,-582.67 1151.18,-576.13"/>
</g>
<!-- n25&#45;&gt;n20 -->
<g id="edge54" class="edge">
<title>n25&#45;&gt;n20</title>
<path fill="none" stroke="darkgreen" stroke-width="2" d="M326.86,-143.7C321.26,-133.65 314.2,-120.97 308.4,-110.57"/>
<polygon fill="darkgreen" stroke="darkgreen" stroke-width="2" points="311.44,-108.82 303.51,-101.79 305.32,-112.23 311.44,-108.82"/>
</g>
<!-- n26&#45;&gt;n8 -->
<g id="edge56" class="edge">
<title>n26&#45;&gt;n8</title>
<path fill="none" stroke="darkgreen" stroke-width="2" d="M146.62,-36.37C119.48,-61.03 75.5,-109.01 75.5,-161 75.5,-228.5 75.5,-228.5 75.5,-228.5 75.5,-301.57 153.8,-279.55 224.5,-298 325.16,-324.27 623.85,-337.22 769.21,-342.11"/>
<polygon fill="darkgreen" stroke="darkgreen" stroke-width="2" points="769.3,-345.61 779.41,-342.44 769.53,-338.61 769.3,-345.61"/>
</g>
</g>
</svg>
