<?xml version="1.0" encoding="UTF-8" standalone="no"?>
<!DOCTYPE svg PUBLIC "-//W3C//DTD SVG 1.1//EN"
 "http://www.w3.org/Graphics/SVG/1.1/DTD/svg11.dtd">
<!-- Generated by graphviz version 2.43.0 (0)
 -->
<!-- Title: %3 Pages: 1 -->
<svg width="1683pt" height="798pt"
 viewBox="0.00 0.00 1682.50 798.00" xmlns="http://www.w3.org/2000/svg" xmlns:xlink="http://www.w3.org/1999/xlink">
<g id="graph0" class="graph" transform="scale(1 1) rotate(0) translate(4 794)">
<title>%3</title>
<polygon fill="white" stroke="transparent" points="-4,4 -4,-794 1678.5,-794 1678.5,4 -4,4"/>
<!-- n0 -->
<g id="node1" class="node">
<title>n0</title>
<polygon fill="none" stroke="black" points="1481,-790 1427,-790 1427,-767 1481,-767 1481,-790"/>
<text text-anchor="middle" x="1454" y="-774.8" font-family="Times,serif" font-size="14.00">IDLE</text>
</g>
<!-- n1 -->
<g id="node2" class="node">
<title>n1</title>
<polygon fill="none" stroke="black" points="1551,-731 1357,-731 1357,-708 1551,-708 1551,-731"/>
<text text-anchor="middle" x="1454" y="-715.8" font-family="Times,serif" font-size="14.00">RX / SCTP / HEARTBEAT</text>
</g>
<!-- n0&#45;&gt;n1 -->
<g id="edge1" class="edge">
<title>n0&#45;&gt;n1</title>
<path fill="none" stroke="black" d="M1454,-766.78C1454,-759.61 1454,-749.95 1454,-741.31"/>
<polygon fill="black" stroke="black" points="1457.5,-741.17 1454,-731.17 1450.5,-741.17 1457.5,-741.17"/>
</g>
<!-- n2 -->
<g id="node3" class="node">
<title>n2</title>
<polygon fill="none" stroke="black" points="1569,-672 1339,-672 1339,-649 1569,-649 1569,-672"/>
<text text-anchor="middle" x="1454" y="-656.8" font-family="Times,serif" font-size="14.00">TX / SCTP / HEARTBEAT_ACK</text>
</g>
<!-- n1&#45;&gt;n2 -->
<g id="edge2" class="edge">
<title>n1&#45;&gt;n2</title>
<path fill="none" stroke="black" d="M1448.59,-707.78C1447.33,-700.61 1446.96,-690.95 1447.47,-682.31"/>
<polygon fill="black" stroke="black" points="1450.97,-682.5 1448.6,-672.17 1444.02,-681.73 1450.97,-682.5"/>
</g>
<!-- n16 -->
<g id="node17" class="node">
<title>n16</title>
<polygon fill="none" stroke="black" points="1674.5,-23 1443.5,-23 1443.5,0 1674.5,0 1674.5,-23"/>
<text text-anchor="middle" x="1559" y="-7.8" font-family="Times,serif" font-size="14.00">RX / SCTP / HEARTBEAT_ACK</text>
</g>
<!-- n1&#45;&gt;n16 -->
<g id="edge39" class="edge">
<title>n1&#45;&gt;n16</title>
<path fill="none" stroke="black" d="M1507.31,-707.88C1560.78,-694.19 1635,-664.34 1635,-602.5 1635,-602.5 1635,-602.5 1635,-128.5 1635,-86.92 1599.02,-50.34 1576.36,-29.86"/>
<polygon fill="black" stroke="black" points="1578.51,-27.09 1568.7,-23.06 1573.86,-32.32 1578.51,-27.09"/>
</g>
<!-- n2&#45;&gt;n1 -->
<g id="edge38" class="edge">
<title>n2&#45;&gt;n1</title>
<path fill="none" stroke="black" d="M1459.4,-672.17C1460.66,-679.33 1461.04,-688.99 1460.53,-697.63"/>
<polygon fill="black" stroke="black" points="1457.03,-697.46 1459.41,-707.78 1463.99,-698.22 1457.03,-697.46"/>
</g>
<!-- n3 -->
<g id="node4" class="node">
<title>n3</title>
<polygon fill="none" stroke="black" points="1482.5,-613 1349.5,-613 1349.5,-590 1482.5,-590 1482.5,-613"/>
<text text-anchor="middle" x="1416" y="-597.8" font-family="Times,serif" font-size="14.00">TX / SCTP / INIT</text>
</g>
<!-- n2&#45;&gt;n3 -->
<g id="edge3" class="edge">
<title>n2&#45;&gt;n3</title>
<path fill="none" stroke="black" d="M1446.85,-648.78C1441.76,-641.14 1434.77,-630.65 1428.73,-621.6"/>
<polygon fill="black" stroke="black" points="1431.57,-619.55 1423.12,-613.17 1425.75,-623.44 1431.57,-619.55"/>
</g>
<!-- n13 -->
<g id="node14" class="node">
<title>n13</title>
<polygon fill="#e60a0a" fill-opacity="0.250980" stroke="black" points="974,-82 712,-82 712,-59 974,-59 974,-82"/>
<text text-anchor="start" x="720" y="-67.8" font-family="Times,serif" font-weight="bold" font-size="14.00" fill="firebrick">(&#45;) TX / E2AP / id&#45;RICindication</text>
</g>
<!-- n2&#45;&gt;n13 -->
<g id="edge23" class="edge">
<title>n2&#45;&gt;n13</title>
<path fill="none" stroke="firebrick" stroke-width="2" d="M1338.83,-659.21C1057.09,-656.96 356,-641.53 356,-543.5 356,-543.5 356,-543.5 356,-187.5 356,-115.89 557.81,-88.4 701.6,-77.91"/>
<polygon fill="firebrick" stroke="firebrick" stroke-width="2" points="702.12,-81.38 711.85,-77.18 701.63,-74.4 702.12,-81.38"/>
</g>
<!-- n15 -->
<g id="node16" class="node">
<title>n15</title>
<polygon fill="none" stroke="black" points="1531,-82 1339,-82 1339,-59 1531,-59 1531,-82"/>
<text text-anchor="middle" x="1435" y="-66.8" font-family="Times,serif" font-size="14.00">TX / SCTP / HEARTBEAT</text>
</g>
<!-- n2&#45;&gt;n15 -->
<g id="edge41" class="edge">
<title>n2&#45;&gt;n15</title>
<path fill="none" stroke="black" d="M1465.37,-648.85C1484.48,-629.73 1521,-587.46 1521,-543.5 1521,-543.5 1521,-543.5 1521,-187.5 1521,-155.23 1518.79,-144.23 1500,-118 1491.03,-105.47 1477.61,-95.07 1465.29,-87.29"/>
<polygon fill="black" stroke="black" points="1466.97,-84.22 1456.59,-82.11 1463.39,-90.24 1466.97,-84.22"/>
</g>
<!-- n4 -->
<g id="node5" class="node">
<title>n4</title>
<polygon fill="none" stroke="black" points="1483,-554 1311,-554 1311,-531 1483,-531 1483,-554"/>
<text text-anchor="middle" x="1397" y="-538.8" font-family="Times,serif" font-size="14.00">RX / SCTP / INIT_ACK</text>
</g>
<!-- n3&#45;&gt;n4 -->
<g id="edge4" class="edge">
<title>n3&#45;&gt;n4</title>
<path fill="none" stroke="black" d="M1412.43,-589.78C1409.98,-582.45 1406.67,-572.52 1403.75,-563.74"/>
<polygon fill="black" stroke="black" points="1407.04,-562.55 1400.56,-554.17 1400.4,-564.77 1407.04,-562.55"/>
</g>
<!-- n5 -->
<g id="node6" class="node">
<title>n5</title>
<polygon fill="none" stroke="black" points="1493,-495 1281,-495 1281,-472 1493,-472 1493,-495"/>
<text text-anchor="middle" x="1387" y="-479.8" font-family="Times,serif" font-size="14.00">TX / SCTP / COOKIE_ECHO</text>
</g>
<!-- n4&#45;&gt;n5 -->
<g id="edge5" class="edge">
<title>n4&#45;&gt;n5</title>
<path fill="none" stroke="black" d="M1395.12,-530.78C1393.86,-523.61 1392.17,-513.95 1390.65,-505.31"/>
<polygon fill="black" stroke="black" points="1394.05,-504.42 1388.87,-495.17 1387.15,-505.63 1394.05,-504.42"/>
</g>
<!-- n6 -->
<g id="node7" class="node">
<title>n6</title>
<polygon fill="none" stroke="black" points="1450,-436 1250,-436 1250,-413 1450,-413 1450,-436"/>
<text text-anchor="middle" x="1350" y="-420.8" font-family="Times,serif" font-size="14.00">RX / SCTP / COOKIE_ACK</text>
</g>
<!-- n5&#45;&gt;n6 -->
<g id="edge6" class="edge">
<title>n5&#45;&gt;n6</title>
<path fill="none" stroke="black" d="M1380.04,-471.78C1375.08,-464.14 1368.27,-453.65 1362.4,-444.6"/>
<polygon fill="black" stroke="black" points="1365.31,-442.66 1356.93,-436.17 1359.44,-446.47 1365.31,-442.66"/>
</g>
<!-- n7 -->
<g id="node8" class="node">
<title>n7</title>
<polygon fill="none" stroke="black" points="1307.5,-377 1166.5,-377 1166.5,-354 1307.5,-354 1307.5,-377"/>
<text text-anchor="middle" x="1237" y="-361.8" font-family="Times,serif" font-size="14.00">RX / SCTP / DATA</text>
</g>
<!-- n6&#45;&gt;n7 -->
<g id="edge7" class="edge">
<title>n6&#45;&gt;n7</title>
<path fill="none" stroke="black" d="M1329.01,-412.91C1311.57,-404.11 1286.53,-391.49 1266.98,-381.62"/>
<polygon fill="black" stroke="black" points="1268.38,-378.41 1257.88,-377.03 1265.23,-384.66 1268.38,-378.41"/>
</g>
<!-- n9 -->
<g id="node10" class="node">
<title>n9</title>
<polygon fill="none" stroke="black" points="1328,-259 1188,-259 1188,-236 1328,-236 1328,-259"/>
<text text-anchor="middle" x="1258" y="-243.8" font-family="Times,serif" font-size="14.00">TX / SCTP / DATA</text>
</g>
<!-- n6&#45;&gt;n9 -->
<g id="edge43" class="edge">
<title>n6&#45;&gt;n9</title>
<path fill="none" stroke="black" d="M1349.07,-412.71C1347.56,-398.66 1343.79,-373.6 1335,-354 1319.9,-320.33 1292.88,-286.83 1275.2,-266.89"/>
<polygon fill="black" stroke="black" points="1277.56,-264.28 1268.25,-259.22 1272.37,-268.98 1277.56,-264.28"/>
</g>
<!-- n7&#45;&gt;n7 -->
<g id="edge44" class="edge">
<title>n7&#45;&gt;n7</title>
<path fill="none" stroke="black" d="M1307.83,-375.37C1318.37,-373.83 1325.5,-370.54 1325.5,-365.5 1325.5,-362.27 1322.57,-359.76 1317.7,-357.97"/>
<polygon fill="black" stroke="black" points="1318.36,-354.53 1307.83,-355.63 1316.75,-361.34 1318.36,-354.53"/>
</g>
<!-- n8 -->
<g id="node9" class="node">
<title>n8</title>
<polygon fill="none" stroke="black" points="1222,-318 1080,-318 1080,-295 1222,-295 1222,-318"/>
<text text-anchor="middle" x="1151" y="-302.8" font-family="Times,serif" font-size="14.00">TX / SCTP / SACK</text>
</g>
<!-- n7&#45;&gt;n8 -->
<g id="edge8" class="edge">
<title>n7&#45;&gt;n8</title>
<path fill="none" stroke="black" d="M1215.41,-353.78C1201.33,-345.42 1183.33,-333.66 1169.83,-324.09"/>
<polygon fill="black" stroke="black" points="1171.85,-321.23 1161.7,-318.17 1167.73,-326.89 1171.85,-321.23"/>
</g>
<!-- n8&#45;&gt;n7 -->
<g id="edge9" class="edge">
<title>n8&#45;&gt;n7</title>
<path fill="none" stroke="black" d="M1172.51,-318.17C1186.57,-326.52 1204.57,-338.27 1218.09,-347.85"/>
<polygon fill="black" stroke="black" points="1216.09,-350.73 1226.24,-353.78 1220.21,-345.07 1216.09,-350.73"/>
</g>
<!-- n8&#45;&gt;n8 -->
<g id="edge50" class="edge">
<title>n8&#45;&gt;n8</title>
<path fill="none" stroke="black" d="M1222.23,-316.37C1232.83,-314.83 1240,-311.54 1240,-306.5 1240,-303.27 1237.06,-300.76 1232.15,-298.97"/>
<polygon fill="black" stroke="black" points="1232.76,-295.52 1222.23,-296.63 1231.16,-302.33 1232.76,-295.52"/>
</g>
<!-- n8&#45;&gt;n9 -->
<g id="edge10" class="edge">
<title>n8&#45;&gt;n9</title>
<path fill="none" stroke="black" d="M1170.88,-294.91C1187.32,-286.15 1210.88,-273.6 1229.36,-263.76"/>
<polygon fill="black" stroke="black" points="1231.05,-266.82 1238.23,-259.03 1227.76,-260.64 1231.05,-266.82"/>
</g>
<!-- n10 -->
<g id="node11" class="node">
<title>n10</title>
<polygon fill="none" stroke="black" points="948,-200 712,-200 712,-177 948,-177 948,-200"/>
<text text-anchor="middle" x="830" y="-184.8" font-family="Times,serif" font-size="14.00">RX / E2AP / id&#45;RICsubscription</text>
</g>
<!-- n8&#45;&gt;n10 -->
<g id="edge15" class="edge">
<title>n8&#45;&gt;n10</title>
<path fill="none" stroke="black" d="M1117.57,-294.9C1056.17,-273.93 926.56,-227.15 864.44,-203.61"/>
<polygon fill="black" stroke="black" points="865.66,-200.33 855.07,-200.04 863.16,-206.87 865.66,-200.33"/>
</g>
<!-- n12 -->
<g id="node13" class="node">
<title>n12</title>
<polygon fill="none" stroke="black" points="1472.5,-141 1329.5,-141 1329.5,-118 1472.5,-118 1472.5,-141"/>
<text text-anchor="middle" x="1401" y="-125.8" font-family="Times,serif" font-size="14.00">RX / SCTP / SACK</text>
</g>
<!-- n8&#45;&gt;n12 -->
<g id="edge16" class="edge">
<title>n8&#45;&gt;n12</title>
<path fill="none" stroke="black" d="M1222.05,-295.49C1269.85,-287.76 1327.32,-275.57 1346,-259 1377.61,-230.96 1387.5,-179.63 1393.64,-151.07"/>
<polygon fill="black" stroke="black" points="1397.12,-151.53 1395.92,-141 1390.3,-149.98 1397.12,-151.53"/>
</g>
<!-- n17 -->
<g id="node18" class="node">
<title>n17</title>
<polygon fill="#e60a0a" fill-opacity="0.250980" stroke="black" points="1318,-200 984,-200 984,-177 1318,-177 1318,-200"/>
<text text-anchor="start" x="992" y="-185.8" font-family="Times,serif" font-weight="bold" font-size="14.00" fill="firebrick">(&#45;) RX / E2AP / id&#45;RICsubscriptionDelete</text>
</g>
<!-- n8&#45;&gt;n17 -->
<g id="edge31" class="edge">
<title>n8&#45;&gt;n17</title>
<path fill="none" stroke="firebrick" stroke-width="2" d="M1146.89,-294.79C1143.84,-275.63 1143.43,-235.15 1145.67,-210.34"/>
<polygon fill="firebrick" stroke="firebrick" stroke-width="2" points="1149.18,-210.52 1146.89,-200.18 1142.23,-209.69 1149.18,-210.52"/>
</g>
<!-- n19 -->
<g id="node20" class="node">
<title>n19</title>
<polygon fill="#e60a0a" fill-opacity="0.250980" stroke="black" points="646,-259 416,-259 416,-236 646,-236 646,-259"/>
<text text-anchor="start" x="424" y="-244.8" font-family="Times,serif" font-weight="bold" font-size="14.00" fill="firebrick">(&#45;) TX / SCTP / SHUTDOWN</text>
</g>
<!-- n8&#45;&gt;n19 -->
<g id="edge34" class="edge">
<title>n8&#45;&gt;n19</title>
<path fill="none" stroke="firebrick" stroke-width="2" d="M1079.88,-298.96C976.44,-289.45 782.98,-271.67 655.57,-259.95"/>
<polygon fill="firebrick" stroke="firebrick" stroke-width="2" points="655.65,-256.45 645.37,-259.01 655.01,-263.42 655.65,-256.45"/>
</g>
<!-- n9&#45;&gt;n9 -->
<g id="edge48" class="edge">
<title>n9&#45;&gt;n9</title>
<path fill="none" stroke="black" d="M1328.07,-257.42C1338.75,-255.9 1346,-252.6 1346,-247.5 1346,-244.23 1343.02,-241.7 1338.08,-239.91"/>
<polygon fill="black" stroke="black" points="1338.6,-236.44 1328.07,-237.58 1337.02,-243.26 1338.6,-236.44"/>
</g>
<!-- n9&#45;&gt;n10 -->
<g id="edge11" class="edge">
<title>n9&#45;&gt;n10</title>
<path fill="none" stroke="black" d="M1187.8,-237.15C1114.35,-227.37 998.81,-211.98 919,-201.35"/>
<polygon fill="black" stroke="black" points="919.33,-197.87 908.96,-200.02 918.41,-204.81 919.33,-197.87"/>
</g>
<!-- n9&#45;&gt;n12 -->
<g id="edge47" class="edge">
<title>n9&#45;&gt;n12</title>
<path fill="none" stroke="black" d="M1275.27,-235.96C1289.56,-226.98 1310.18,-213.43 1327,-200 1347.23,-183.86 1368.59,-163.37 1383.14,-148.84"/>
<polygon fill="black" stroke="black" points="1385.91,-151 1390.46,-141.44 1380.94,-146.08 1385.91,-151"/>
</g>
<!-- n9&#45;&gt;n17 -->
<g id="edge27" class="edge">
<title>n9&#45;&gt;n17</title>
<path fill="none" stroke="firebrick" stroke-width="2" d="M1238.12,-235.91C1221.68,-227.15 1198.12,-214.6 1179.64,-204.76"/>
<polygon fill="firebrick" stroke="firebrick" stroke-width="2" points="1181.24,-201.64 1170.77,-200.03 1177.95,-207.82 1181.24,-201.64"/>
</g>
<!-- n10&#45;&gt;n8 -->
<g id="edge14" class="edge">
<title>n10&#45;&gt;n8</title>
<path fill="none" stroke="black" d="M863.24,-200.04C924.49,-220.95 1054.1,-267.73 1116.37,-291.32"/>
<polygon fill="black" stroke="black" points="1115.17,-294.61 1125.76,-294.9 1117.66,-288.07 1115.17,-294.61"/>
</g>
<!-- n10&#45;&gt;n10 -->
<g id="edge42" class="edge">
<title>n10&#45;&gt;n10</title>
<path fill="none" stroke="black" d="M948.44,-197.14C959.22,-195.35 966,-192.46 966,-188.5 966,-185.96 963.22,-183.86 958.38,-182.21"/>
<polygon fill="black" stroke="black" points="958.98,-178.76 948.44,-179.86 957.37,-185.57 958.98,-178.76"/>
</g>
<!-- n11 -->
<g id="node12" class="node">
<title>n11</title>
<polygon fill="none" stroke="black" points="947,-141 713,-141 713,-118 947,-118 947,-141"/>
<text text-anchor="middle" x="830" y="-125.8" font-family="Times,serif" font-size="14.00">TX / E2AP / id&#45;RICsubscription</text>
</g>
<!-- n10&#45;&gt;n11 -->
<g id="edge12" class="edge">
<title>n10&#45;&gt;n11</title>
<path fill="none" stroke="black" d="M824.59,-176.78C823.33,-169.61 822.96,-159.95 823.47,-151.31"/>
<polygon fill="black" stroke="black" points="826.97,-151.5 824.6,-141.17 820.02,-150.73 826.97,-151.5"/>
</g>
<!-- n11&#45;&gt;n10 -->
<g id="edge13" class="edge">
<title>n11&#45;&gt;n10</title>
<path fill="none" stroke="black" d="M835.4,-141.17C836.66,-148.33 837.04,-157.99 836.53,-166.63"/>
<polygon fill="black" stroke="black" points="833.03,-166.46 835.41,-176.78 839.99,-167.22 833.03,-166.46"/>
</g>
<!-- n12&#45;&gt;n1 -->
<g id="edge22" class="edge">
<title>n12&#45;&gt;n1</title>
<path fill="none" stroke="black" d="M1414.41,-141.09C1436.47,-159.8 1478,-201.06 1478,-246.5 1478,-366.5 1478,-366.5 1478,-366.5 1478,-398.52 1482.49,-414.24 1459,-436 1396.9,-493.51 1334.1,-414.49 1272,-472 1248.51,-493.76 1253,-509.48 1253,-541.5 1253,-602.5 1253,-602.5 1253,-602.5 1253,-661.79 1319.42,-691.25 1375.9,-705.58"/>
<polygon fill="black" stroke="black" points="1375.41,-709.06 1385.95,-708 1377.05,-702.25 1375.41,-709.06"/>
</g>
<!-- n12&#45;&gt;n7 -->
<g id="edge46" class="edge">
<title>n12&#45;&gt;n7</title>
<path fill="none" stroke="black" d="M1405.13,-141.01C1408.55,-150.31 1413.13,-164.32 1415,-177 1420.61,-215.1 1411.82,-229.56 1387,-259 1353.19,-299.1 1300.78,-331.28 1267.71,-349.12"/>
<polygon fill="black" stroke="black" points="1265.72,-346.22 1258.52,-353.98 1268.99,-352.4 1265.72,-346.22"/>
</g>
<!-- n12&#45;&gt;n8 -->
<g id="edge33" class="edge">
<title>n12&#45;&gt;n8</title>
<path fill="none" stroke="black" d="M1405.08,-141C1407.75,-165.59 1399.81,-227.24 1364,-259 1344.7,-276.12 1284.02,-288.55 1232.28,-296.24"/>
<polygon fill="black" stroke="black" points="1231.47,-292.82 1222.07,-297.71 1232.47,-299.75 1231.47,-292.82"/>
</g>
<!-- n12&#45;&gt;n12 -->
<g id="edge17" class="edge">
<title>n12&#45;&gt;n12</title>
<path fill="none" stroke="black" d="M1472.63,-139.37C1483.29,-137.83 1490.5,-134.54 1490.5,-129.5 1490.5,-126.27 1487.54,-123.76 1482.61,-121.97"/>
<polygon fill="black" stroke="black" points="1483.16,-118.5 1472.63,-119.63 1481.57,-125.32 1483.16,-118.5"/>
</g>
<!-- n12&#45;&gt;n13 -->
<g id="edge18" class="edge">
<title>n12&#45;&gt;n13</title>
<path fill="none" stroke="firebrick" stroke-width="2" d="M1329.46,-119.1C1326.26,-118.72 1323.1,-118.35 1320,-118 1202.22,-104.63 1067.82,-91.74 971.76,-82.94"/>
<polygon fill="firebrick" stroke="firebrick" stroke-width="2" points="971.98,-79.44 961.71,-82.02 971.35,-86.41 971.98,-79.44"/>
</g>
<!-- n12&#45;&gt;n15 -->
<g id="edge24" class="edge">
<title>n12&#45;&gt;n15</title>
<path fill="none" stroke="black" d="M1407.4,-117.78C1411.91,-110.22 1418.08,-99.87 1423.44,-90.88"/>
<polygon fill="black" stroke="black" points="1426.52,-92.55 1428.63,-82.17 1420.5,-88.97 1426.52,-92.55"/>
</g>
<!-- n14 -->
<g id="node15" class="node">
<title>n14</title>
<polygon fill="#e60a0a" fill-opacity="0.250980" stroke="black" points="974.5,-23 711.5,-23 711.5,0 974.5,0 974.5,-23"/>
<text text-anchor="start" x="719.5" y="-8.8" font-family="Times,serif" font-weight="bold" font-size="14.00" fill="firebrick">(&#45;) RX / E2AP / id&#45;RICindication</text>
</g>
<!-- n13&#45;&gt;n14 -->
<g id="edge19" class="edge">
<title>n13&#45;&gt;n14</title>
<path fill="none" stroke="firebrick" stroke-width="2" d="M837.59,-58.78C836.33,-51.61 835.96,-41.95 836.47,-33.31"/>
<polygon fill="firebrick" stroke="firebrick" stroke-width="2" points="839.97,-33.5 837.6,-23.17 833.02,-32.73 839.97,-33.5"/>
</g>
<!-- n14&#45;&gt;n8 -->
<g id="edge21" class="edge">
<title>n14&#45;&gt;n8</title>
<path fill="none" stroke="firebrick" stroke-width="2" d="M768.21,-23.06C744.58,-29.81 720.18,-40.87 703,-59 680.97,-82.24 684,-96.48 684,-128.5 684,-189.5 684,-189.5 684,-189.5 684,-268.02 935.8,-293.77 1069.61,-301.91"/>
<polygon fill="firebrick" stroke="firebrick" stroke-width="2" points="1069.63,-305.42 1079.82,-302.51 1070.04,-298.43 1069.63,-305.42"/>
</g>
<!-- n14&#45;&gt;n13 -->
<g id="edge20" class="edge">
<title>n14&#45;&gt;n13</title>
<path fill="none" stroke="firebrick" stroke-width="2" d="M848.4,-23.17C849.66,-30.33 850.04,-39.99 849.53,-48.63"/>
<polygon fill="firebrick" stroke="firebrick" stroke-width="2" points="846.03,-48.46 848.41,-58.78 852.99,-49.22 846.03,-48.46"/>
</g>
<!-- n15&#45;&gt;n1 -->
<g id="edge49" class="edge">
<title>n15&#45;&gt;n1</title>
<path fill="none" stroke="black" d="M1477.56,-82.07C1525.56,-96.84 1597,-128.69 1597,-187.5 1597,-602.5 1597,-602.5 1597,-602.5 1597,-634.52 1599.58,-648.34 1578,-672 1563.82,-687.55 1543.93,-697.92 1524.22,-704.83"/>
<polygon fill="black" stroke="black" points="1523.03,-701.54 1514.59,-707.96 1525.18,-708.2 1523.03,-701.54"/>
</g>
<!-- n15&#45;&gt;n16 -->
<g id="edge25" class="edge">
<title>n15&#45;&gt;n16</title>
<path fill="none" stroke="black" d="M1452.64,-58.91C1470.54,-49.95 1498.47,-37.02 1521.29,-27.09"/>
<polygon fill="black" stroke="black" points="1522.91,-30.2 1530.71,-23.03 1520.14,-23.77 1522.91,-30.2"/>
</g>
<!-- n16&#45;&gt;n1 -->
<g id="edge26" class="edge">
<title>n16&#45;&gt;n1</title>
<path fill="none" stroke="black" d="M1579.69,-23.06C1607.65,-41.44 1653,-81.81 1653,-128.5 1653,-602.5 1653,-602.5 1653,-602.5 1653,-660.93 1586.74,-690.8 1530.63,-705.47"/>
<polygon fill="black" stroke="black" points="1529.51,-702.14 1520.65,-707.95 1531.2,-708.93 1529.51,-702.14"/>
</g>
<!-- n16&#45;&gt;n2 -->
<g id="edge45" class="edge">
<title>n16&#45;&gt;n2</title>
<path fill="none" stroke="black" d="M1559,-23.06C1559,-43.44 1559,-89.63 1559,-128.5 1559,-543.5 1559,-543.5 1559,-543.5 1559,-588.99 1514.07,-624.61 1482.99,-643.8"/>
<polygon fill="black" stroke="black" points="1481.05,-640.88 1474.25,-648.99 1484.63,-646.89 1481.05,-640.88"/>
</g>
<!-- n16&#45;&gt;n15 -->
<g id="edge40" class="edge">
<title>n16&#45;&gt;n15</title>
<path fill="none" stroke="black" d="M1541.47,-23.03C1523.61,-31.97 1495.7,-44.9 1472.85,-54.85"/>
<polygon fill="black" stroke="black" points="1471.22,-51.74 1463.42,-58.91 1473.99,-58.17 1471.22,-51.74"/>
</g>
<!-- n17&#45;&gt;n8 -->
<g id="edge30" class="edge">
<title>n17&#45;&gt;n8</title>
<path fill="none" stroke="firebrick" stroke-width="2" d="M1155.11,-200.18C1158.16,-219.32 1158.57,-259.8 1156.33,-284.62"/>
<polygon fill="firebrick" stroke="firebrick" stroke-width="2" points="1152.82,-284.45 1155.11,-294.79 1159.77,-285.28 1152.82,-284.45"/>
</g>
<!-- n17&#45;&gt;n12 -->
<g id="edge32" class="edge">
<title>n17&#45;&gt;n12</title>
<path fill="none" stroke="firebrick" stroke-width="2" d="M1197.15,-176.98C1238.86,-167.47 1300.37,-153.44 1344.9,-143.29"/>
<polygon fill="firebrick" stroke="firebrick" stroke-width="2" points="1345.73,-146.69 1354.7,-141.06 1344.17,-139.87 1345.73,-146.69"/>
</g>
<!-- n18 -->
<g id="node19" class="node">
<title>n18</title>
<polygon fill="#e60a0a" fill-opacity="0.250980" stroke="black" points="1311,-141 979,-141 979,-118 1311,-118 1311,-141"/>
<text text-anchor="start" x="987" y="-126.8" font-family="Times,serif" font-weight="bold" font-size="14.00" fill="firebrick">(&#45;) TX / E2AP / id&#45;RICsubscriptionDelete</text>
</g>
<!-- n17&#45;&gt;n18 -->
<g id="edge28" class="edge">
<title>n17&#45;&gt;n18</title>
<path fill="none" stroke="firebrick" stroke-width="2" d="M1144.46,-176.78C1142.45,-169.61 1141.06,-159.95 1140.66,-151.31"/>
<polygon fill="firebrick" stroke="firebrick" stroke-width="2" points="1144.16,-151.19 1140.72,-141.17 1137.16,-151.15 1144.16,-151.19"/>
</g>
<!-- n18&#45;&gt;n17 -->
<g id="edge29" class="edge">
<title>n18&#45;&gt;n17</title>
<path fill="none" stroke="firebrick" stroke-width="2" d="M1151.53,-141.17C1153.54,-148.33 1154.93,-157.99 1155.33,-166.63"/>
<polygon fill="firebrick" stroke="firebrick" stroke-width="2" points="1151.83,-166.76 1155.28,-176.78 1158.83,-166.8 1151.83,-166.76"/>
</g>
<!-- n20 -->
<g id="node21" class="node">
<title>n20</title>
<polygon fill="#e60a0a" fill-opacity="0.250980" stroke="black" points="656,-200 384,-200 384,-177 656,-177 656,-200"/>
<text text-anchor="start" x="392" y="-185.8" font-family="Times,serif" font-weight="bold" font-size="14.00" fill="firebrick">(&#45;) RX / SCTP / SHUTDOWN_ACK</text>
</g>
<!-- n19&#45;&gt;n20 -->
<g id="edge35" class="edge">
<title>n19&#45;&gt;n20</title>
<path fill="none" stroke="firebrick" stroke-width="2" d="M528.93,-235.78C527.53,-228.53 525.64,-218.74 523.96,-210.02"/>
<polygon fill="firebrick" stroke="firebrick" stroke-width="2" points="527.39,-209.33 522.06,-200.17 520.52,-210.66 527.39,-209.33"/>
</g>
<!-- n21 -->
<g id="node22" class="node">
<title>n21</title>
<polygon fill="#e60a0a" fill-opacity="0.250980" stroke="black" points="328,-141 0,-141 0,-118 328,-118 328,-141"/>
<text text-anchor="start" x="8" y="-126.8" font-family="Times,serif" font-weight="bold" font-size="14.00" fill="firebrick">(&#45;) TX / SCTP / SHUTDOWN_COMPLETE</text>
</g>
<!-- n20&#45;&gt;n21 -->
<g id="edge36" class="edge">
<title>n20&#45;&gt;n21</title>
<path fill="none" stroke="firebrick" stroke-width="2" d="M454.29,-176.98C393.55,-167.25 303.33,-152.81 239.62,-142.61"/>
<polygon fill="firebrick" stroke="firebrick" stroke-width="2" points="240.06,-139.13 229.63,-141.01 238.95,-146.04 240.06,-139.13"/>
</g>
<!-- n21&#45;&gt;n1 -->
<g id="edge37" class="edge">
<title>n21&#45;&gt;n1</title>
<path fill="none" stroke="firebrick" stroke-width="2" d="M177.41,-141.09C199.47,-159.8 241,-201.06 241,-246.5 241,-602.5 241,-602.5 241,-602.5 241,-713.05 1049.65,-720.4 1346.45,-719.38"/>
<polygon fill="firebrick" stroke="firebrick" stroke-width="2" points="1346.8,-722.88 1356.79,-719.34 1346.77,-715.88 1346.8,-722.88"/>
</g>
</g>
</svg>
